<svg width="59" height="58" viewBox="0 0 59 58" fill="none" xmlns="http://www.w3.org/2000/svg">
<g filter="url(#filter0_d_1_2438)">
<rect x="4.99316" width="49.9972" height="50" rx="8" fill="#F3F6F9"/>
<g clip-path="url(#clip0_1_2438)">
<path d="M43.9284 32.75C43.9284 33.297 43.7111 33.8216 43.3244 34.2084C42.9376 34.5952 42.413 34.8125 41.866 34.8125H17.1174C16.5705 34.8125 16.0459 34.5952 15.6591 34.2084C15.2723 33.8216 15.0551 33.297 15.0551 32.75V20.375C15.0551 19.828 15.2723 19.3034 15.6591 18.9166C16.0459 18.5298 16.5705 18.3125 17.1174 18.3125H19.5346C21.1746 18.3116 22.7473 17.6595 23.9068 16.4996L25.6186 14.7918C26.0043 14.406 26.5271 14.1887 27.0726 14.1875H31.9068C32.4537 14.1876 32.9782 14.405 33.3649 14.7918L35.0725 16.4996C35.6472 17.0744 36.3295 17.5304 37.0804 17.8415C37.8313 18.1525 38.6361 18.3126 39.4489 18.3125H41.866C42.413 18.3125 42.9376 18.5298 43.3244 18.9166C43.7111 19.3034 43.9284 19.828 43.9284 20.375V32.75ZM17.1174 16.25C16.0235 16.25 14.9743 16.6846 14.2008 17.4582C13.4272 18.2318 12.9927 19.281 12.9927 20.375V32.75C12.9927 33.844 13.4272 34.8932 14.2008 35.6668C14.9743 36.4404 16.0235 36.875 17.1174 36.875H41.866C42.96 36.875 44.0091 36.4404 44.7827 35.6668C45.5562 34.8932 45.9908 33.844 45.9908 32.75V20.375C45.9908 19.281 45.5562 18.2318 44.7827 17.4582C44.0091 16.6846 42.96 16.25 41.866 16.25H39.4489C38.3551 16.2498 37.3061 15.815 36.5327 15.0414L34.8251 13.3336C34.0517 12.56 33.0027 12.1252 31.9089 12.125H27.0746C25.9808 12.1252 24.9318 12.56 24.1584 13.3336L22.4508 15.0414C21.6774 15.815 20.6284 16.2498 19.5346 16.25H17.1174Z" fill="#464E5F"/>
<path d="M29.492 30.6875C28.1245 30.6875 26.8131 30.1443 25.8462 29.1773C24.8792 28.2103 24.336 26.8988 24.336 25.5312C24.336 24.1637 24.8792 22.8522 25.8462 21.8852C26.8131 20.9182 28.1245 20.375 29.492 20.375C30.8594 20.375 32.1709 20.9182 33.1378 21.8852C34.1047 22.8522 34.6479 24.1637 34.6479 25.5312C34.6479 26.8988 34.1047 28.2103 33.1378 29.1773C32.1709 30.1443 30.8594 30.6875 29.492 30.6875ZM29.492 32.75C31.4064 32.75 33.2424 31.9895 34.5961 30.6357C35.9498 29.2819 36.7103 27.4458 36.7103 25.5312C36.7103 23.6167 35.9498 21.7806 34.5961 20.4268C33.2424 19.073 31.4064 18.3125 29.492 18.3125C27.5776 18.3125 25.7415 19.073 24.3878 20.4268C23.0341 21.7806 22.2736 23.6167 22.2736 25.5312C22.2736 27.4458 23.0341 29.2819 24.3878 30.6357C25.7415 31.9895 27.5776 32.75 29.492 32.75ZM19.1801 21.4062C19.1801 21.6798 19.0714 21.9421 18.878 22.1355C18.6846 22.3289 18.4224 22.4375 18.1489 22.4375C17.8754 22.4375 17.6131 22.3289 17.4197 22.1355C17.2263 21.9421 17.1177 21.6798 17.1177 21.4062C17.1177 21.1327 17.2263 20.8704 17.4197 20.677C17.6131 20.4836 17.8754 20.375 18.1489 20.375C18.4224 20.375 18.6846 20.4836 18.878 20.677C19.0714 20.8704 19.1801 21.1327 19.1801 21.4062Z" fill="#464E5F"/>
</g>
</g>
<defs>
<filter id="filter0_d_1_2438" x="0.993164" y="0" width="57.9971" height="58" filterUnits="userSpaceOnUse" color-interpolation-filters="sRGB">
<feFlood flood-opacity="0" result="BackgroundImageFix"/>
<feColorMatrix in="SourceAlpha" type="matrix" values="0 0 0 0 0 0 0 0 0 0 0 0 0 0 0 0 0 0 127 0" result="hardAlpha"/>
<feOffset dy="4"/>
<feGaussianBlur stdDeviation="2"/>
<feColorMatrix type="matrix" values="0 0 0 0 0 0 0 0 0 0 0 0 0 0 0 0 0 0 0.25 0"/>
<feBlend mode="normal" in2="BackgroundImageFix" result="effect1_dropShadow_1_2438"/>
<feBlend mode="normal" in="SourceGraphic" in2="effect1_dropShadow_1_2438" result="shape"/>
</filter>
<clipPath id="clip0_1_2438">
<rect width="32.9981" height="33" fill="white" transform="translate(12.9927 8)"/>
</clipPath>
</defs>
</svg>
