<svg width="576" height="700" viewBox="0 0 576 700" fill="none" xmlns="http://www.w3.org/2000/svg">
<rect width="576" height="700" fill="#C9AC8C" fill-opacity="0.93"/>
<path d="M469.67 217.79C472.047 216.74 474.064 215.016 475.472 212.832C476.879 210.648 477.616 208.099 477.59 205.5C477.59 198.16 472.06 192.19 465.18 192.16C458.3 192.13 452.7 198.05 452.67 205.39C452.621 208.01 453.349 210.586 454.762 212.792C456.175 214.999 458.21 216.738 460.61 217.79C441.44 220.68 442.31 241.52 442.31 241.52L487.64 241.73C487.64 241.73 488.68 220.66 469.67 217.79Z" fill="#F5F5F5"/>
<path d="M201.82 139.92L172.19 129.44L142.85 139.78C139.11 141.52 135.85 142.56 135.85 146V163.11C135.813 175.127 139.165 186.911 145.52 197.11C151.916 207.506 161.337 215.698 172.52 220.59C184.52 216.75 193.46 206.53 198.94 197.78C205.288 187.578 208.635 175.795 208.6 163.78V148.39C208.56 143.49 205.92 141.1 201.82 139.92Z" fill="#F5F5F5"/>
<path d="M182 167.54C182.007 166.013 181.587 164.515 180.789 163.213C179.99 161.912 178.844 160.859 177.479 160.174C176.115 159.489 174.586 159.198 173.065 159.335C171.544 159.472 170.092 160.03 168.872 160.948C167.651 161.866 166.711 163.106 166.158 164.529C165.604 165.952 165.459 167.501 165.738 169.002C166.017 170.503 166.71 171.897 167.739 173.025C168.767 174.154 170.091 174.973 171.56 175.39V187.66H176.04V175.39C177.752 174.909 179.261 173.882 180.337 172.465C181.412 171.048 181.996 169.319 182 167.54Z" fill="#EBEBEB"/>
<path d="M453.74 298.49L458.79 301.23L456.52 305.03L451.42 302.03L451.52 307.64H447.16V301.98L442.11 305L439.88 301.2L444.93 298.46L439.88 295.68L442.11 291.88L447.2 295V289.34H451.56L451.46 295L456.56 291.94L458.83 295.74L453.74 298.49Z" fill="#E0E0E0"/>
<path d="M474.78 298.49L479.83 301.23L477.56 305.03L472.46 302.03L472.56 307.64H468.2L468.25 301.98L463.15 305.04L460.92 301.24L465.97 298.5L460.92 295.72L463.15 291.92L468.25 294.98L468.2 289.32H472.56L472.46 294.98L477.56 291.92L479.83 295.72L474.78 298.49Z" fill="#E0E0E0"/>
<path d="M495.82 298.49L500.88 301.23L498.61 305.03L493.51 302.03L493.6 307.64H489.24L489.29 301.98L484.19 305.04L481.96 301.24L487.02 298.5L482 295.71L484.23 291.91L489.33 294.97L489.28 289.31H493.64L493.55 294.97L498.65 291.91L500.92 295.71L495.82 298.49Z" fill="#E0E0E0"/>
<path d="M281.74 537.86V568.92H327.16H377.26V537.86H281.74Z" fill="#F5F5F5"/>
<path d="M277.729 529.17V537.86H380.6V529.17H327.16H277.729Z" fill="#EBEBEB"/>
<path d="M329.16 568.92H377.26V537.86H380.6V529.17H327.16V537.05L329.16 568.92Z" fill="#EBEBEB"/>
<path d="M314.47 542.86H295.1V547.54H314.47V542.86Z" fill="#E0E0E0"/>
<path d="M317.48 553.39H292.6V563.26H317.48V553.39Z" fill="white"/>
<path d="M296.43 498.15V529.21H341.86H391.96V498.15H296.43Z" fill="#F5F5F5"/>
<path d="M292.42 489.46V498.15H395.3V489.46H341.86H292.42Z" fill="#EBEBEB"/>
<path d="M343.86 529.21H391.96V498.15H395.3V489.46H341.86V497.35L343.86 529.21Z" fill="#EBEBEB"/>
<path d="M329.16 503.16H309.79V507.84H329.16V503.16Z" fill="#E0E0E0"/>
<path d="M332.18 513.68H307.3V523.55H332.18V513.68Z" fill="white"/>
<path d="M502.07 569.16C502.07 569.3 406.22 569.42 288.01 569.42C169.8 569.42 73.9297 569.3 73.9297 569.16C73.9297 569.02 169.76 568.9 288.01 568.9C406.26 568.9 502.07 569 502.07 569.16Z" fill="#263238"/>
<path d="M436.791 345.72H287.771C284.247 345.72 281.391 348.576 281.391 352.1V429.24C281.391 432.764 284.247 435.62 287.771 435.62H436.791C440.314 435.62 443.171 432.764 443.171 429.24V352.1C443.171 348.576 440.314 345.72 436.791 345.72Z" fill="white"/>
<path d="M436.8 435.62C436.8 435.62 437.23 435.62 438.05 435.47C439.266 435.207 440.38 434.599 441.26 433.72C441.902 433.073 442.396 432.295 442.71 431.44C442.89 430.946 443.011 430.432 443.07 429.91C443.07 429.37 443.07 428.79 443.07 428.19C443.07 425.79 443.07 423.02 443.07 419.91C443.07 407.44 443.02 389.42 442.99 367.15C442.99 364.36 442.99 361.51 442.99 358.6V354.18C442.99 352.69 443.14 351.18 442.53 349.8C442.109 348.755 441.411 347.845 440.51 347.168C439.61 346.491 438.541 346.074 437.42 345.96C436.68 345.91 435.86 345.96 435.08 345.96H425.43H383.61H287.79C286.77 345.958 285.765 346.211 284.867 346.697C283.969 347.182 283.207 347.885 282.65 348.74C282.083 349.587 281.739 350.564 281.65 351.58C281.6 352.58 281.65 353.68 281.65 354.72V391.7C281.65 399.7 281.65 407.567 281.65 415.3V426.74C281.65 427.68 281.65 428.63 281.65 429.55C281.696 430.45 281.935 431.33 282.35 432.13C282.776 432.915 283.367 433.6 284.081 434.136C284.796 434.673 285.617 435.049 286.49 435.24C287.379 435.383 288.281 435.43 289.18 435.38H328.25H364.69L417.45 435.46L431.79 435.51H435.52H436.8H435.52H431.79L417.45 435.56L364.69 435.64H328.25H289.18C288.247 435.689 287.312 435.638 286.39 435.49C285.448 435.287 284.561 434.881 283.79 434.301C283.02 433.721 282.386 432.98 281.93 432.13C281.471 431.272 281.208 430.322 281.16 429.35C281.16 428.35 281.16 427.47 281.16 426.52C281.16 422.75 281.16 418.93 281.16 415.08V391.7C281.16 383.7 281.16 375.55 281.16 367.25V354.75C281.16 353.69 281.16 352.67 281.16 351.57C281.235 350.477 281.578 349.419 282.16 348.49C282.768 347.566 283.592 346.804 284.56 346.27C285.54 345.749 286.631 345.471 287.74 345.46H383.56H425.38H435.03C435.83 345.46 436.59 345.46 437.41 345.46C438.212 345.544 438.992 345.774 439.71 346.14C441.137 346.864 442.256 348.078 442.86 349.56C443.153 350.285 443.309 351.058 443.32 351.84C443.32 352.59 443.32 353.34 443.32 354.09V358.51C443.32 361.417 443.32 364.267 443.32 367.06C443.32 389.33 443.25 407.35 443.23 419.82C443.23 422.93 443.23 425.7 443.23 428.1C443.23 428.7 443.23 429.27 443.23 429.83C443.166 430.363 443.039 430.887 442.85 431.39C442.528 432.259 442.019 433.048 441.36 433.7C440.46 434.585 439.319 435.187 438.08 435.43C437.77 435.488 437.456 435.521 437.14 435.53L436.8 435.62Z" fill="#263238"/>
<path d="M337.76 377.49V378.61H333.08V372.61H337.64V373.73H334.47V375H337.27V376.09H334.47V377.49H337.76Z" fill="#263238"/>
<path d="M344.421 372.57V378.57H343.271L340.271 374.9V378.57H338.891V372.57H340.001L343.001 376.24V372.57H344.421Z" fill="#263238"/>
<path d="M347.11 373.71H345.17V372.57H350.44V373.71H348.5V378.61H347.11V373.71Z" fill="#263238"/>
<path d="M355.87 377.49V378.61H351.19V372.61H355.76V373.73H352.58V375H355.39V376.09H352.58V377.49H355.87Z" fill="#263238"/>
<path d="M360.84 378.61L359.67 376.93H358.39V378.61H357V372.61H359.62C361.23 372.61 362.24 373.44 362.24 374.8C362.252 375.207 362.14 375.607 361.918 375.949C361.697 376.29 361.376 376.556 361 376.71L362.35 378.65L360.84 378.61ZM359.53 373.71H358.39V375.81H359.53C360.38 375.81 360.81 375.42 360.81 374.76C360.81 374.1 360.38 373.71 359.53 373.71Z" fill="#263238"/>
<path d="M365.4 375.59C365.44 374.938 365.669 374.313 366.061 373.791C366.453 373.268 366.99 372.873 367.605 372.654C368.22 372.434 368.885 372.4 369.519 372.556C370.153 372.712 370.727 373.05 371.17 373.53L370.27 374.36C370.084 374.139 369.851 373.961 369.588 373.838C369.326 373.715 369.04 373.651 368.75 373.65C368.261 373.685 367.804 373.904 367.469 374.263C367.135 374.622 366.95 375.095 366.95 375.585C366.95 376.075 367.135 376.548 367.469 376.907C367.804 377.266 368.261 377.485 368.75 377.52C369.041 377.524 369.329 377.463 369.592 377.34C369.855 377.217 370.087 377.036 370.27 376.81L371.17 377.64C370.73 378.124 370.157 378.467 369.522 378.626C368.888 378.785 368.22 378.753 367.604 378.534C366.987 378.315 366.449 377.918 366.057 377.395C365.665 376.871 365.437 376.243 365.4 375.59Z" fill="#263238"/>
<path d="M371.61 375.59C371.574 374.928 371.738 374.271 372.079 373.704C372.421 373.136 372.925 372.684 373.526 372.406C374.128 372.128 374.799 372.036 375.452 372.144C376.106 372.251 376.713 372.553 377.193 373.008C377.674 373.464 378.007 374.054 378.149 374.701C378.291 375.348 378.235 376.023 377.989 376.639C377.743 377.254 377.318 377.781 376.769 378.152C376.221 378.523 375.573 378.721 374.91 378.72C374.485 378.745 374.059 378.682 373.659 378.535C373.258 378.389 372.892 378.162 372.583 377.869C372.274 377.576 372.028 377.222 371.861 376.83C371.694 376.438 371.608 376.016 371.61 375.59ZM376.8 375.59C376.792 375.218 376.675 374.857 376.463 374.551C376.25 374.246 375.952 374.01 375.606 373.873C375.26 373.736 374.882 373.704 374.518 373.781C374.154 373.859 373.821 374.042 373.56 374.308C373.3 374.574 373.124 374.91 373.054 375.276C372.985 375.641 373.024 376.019 373.168 376.362C373.313 376.705 373.555 376.998 373.865 377.204C374.175 377.41 374.538 377.52 374.91 377.52C375.164 377.526 375.415 377.479 375.65 377.384C375.884 377.288 376.097 377.146 376.274 376.965C376.451 376.784 376.589 376.569 376.68 376.332C376.77 376.096 376.811 375.843 376.8 375.59Z" fill="#263238"/>
<path d="M379.28 372.57H382C382.795 372.57 383.558 372.886 384.121 373.449C384.684 374.011 385 374.774 385 375.57C385 376.366 384.684 377.129 384.121 377.691C383.558 378.254 382.795 378.57 382 378.57H379.26L379.28 372.57ZM381.95 377.46C382.446 377.46 382.921 377.263 383.272 376.912C383.623 376.562 383.82 376.086 383.82 375.59C383.82 375.094 383.623 374.618 383.272 374.268C382.921 373.917 382.446 373.72 381.95 373.72H380.68V377.46H381.95Z" fill="#263238"/>
<path d="M391.09 377.49V378.61H386.41V372.61H391V373.73H387.8V375H390.61V376.09H387.8V377.49H391.09Z" fill="#263238"/>
<path d="M314.82 388.26H300.13C297.948 388.26 296.18 390.028 296.18 392.21V415.08C296.18 417.262 297.948 419.03 300.13 419.03H314.82C317.001 419.03 318.77 417.262 318.77 415.08V392.21C318.77 390.028 317.001 388.26 314.82 388.26Z" fill="#EBEBEB"/>
<path d="M343.031 388.26H328.341C326.159 388.26 324.391 390.028 324.391 392.21V415.08C324.391 417.262 326.159 419.03 328.341 419.03H343.031C345.212 419.03 346.981 417.262 346.981 415.08V392.21C346.981 390.028 345.212 388.26 343.031 388.26Z" fill="#EBEBEB"/>
<path d="M371.241 388.26H356.551C354.369 388.26 352.601 390.028 352.601 392.21V415.08C352.601 417.262 354.369 419.03 356.551 419.03H371.241C373.422 419.03 375.191 417.262 375.191 415.08V392.21C375.191 390.028 373.422 388.26 371.241 388.26Z" fill="#EBEBEB"/>
<path d="M399.44 388.26H384.75C382.568 388.26 380.8 390.028 380.8 392.21V415.08C380.8 417.262 382.568 419.03 384.75 419.03H399.44C401.621 419.03 403.39 417.262 403.39 415.08V392.21C403.39 390.028 401.621 388.26 399.44 388.26Z" fill="#EBEBEB"/>
<path d="M427.65 388.26H412.96C410.778 388.26 409.01 390.028 409.01 392.21V415.08C409.01 417.262 410.778 419.03 412.96 419.03H427.65C429.831 419.03 431.6 417.262 431.6 415.08V392.21C431.6 390.028 429.831 388.26 427.65 388.26Z" fill="#EBEBEB"/>
<path d="M312.4 406C312.4 408.19 310.7 409.62 308.4 409.62C305.24 409.62 303.57 407.35 303.57 403.62C303.57 399.56 305.74 397.46 308.91 397.46C309.86 397.417 310.803 397.631 311.64 398.08L311.28 398.78C310.556 398.383 309.736 398.192 308.91 398.23C306.22 398.23 304.45 400 304.45 403.49C304.45 403.972 304.483 404.453 304.55 404.93C304.832 404.157 305.358 403.497 306.05 403.051C306.741 402.605 307.56 402.397 308.38 402.46C310.78 402.46 312.4 403.86 312.4 406ZM311.52 406C311.52 404.29 310.29 403.17 308.26 403.17C307.85 403.124 307.435 403.164 307.041 403.286C306.647 403.408 306.282 403.61 305.97 403.879C305.657 404.148 305.404 404.479 305.225 404.851C305.046 405.223 304.946 405.628 304.93 406.04C304.93 407.45 306.11 408.85 308.36 408.85C308.76 408.894 309.164 408.852 309.546 408.729C309.929 408.605 310.281 408.402 310.579 408.133C310.878 407.864 311.116 407.535 311.278 407.167C311.44 406.8 311.523 406.402 311.52 406Z" fill="#FF725E"/>
<path d="M340.3 406.23H337.78V409.56H336.92V406.23H330.07V405.6L336.59 397.55H337.59L331.19 405.46H336.96V402.53H337.8V405.46H340.32L340.3 406.23Z" fill="#FF725E"/>
<path d="M369.39 411.27C365.909 411.617 362.401 411.617 358.92 411.27C362.401 410.923 365.909 410.923 369.39 411.27Z" fill="#FF725E"/>
<path d="M291.66 357.15C293.013 357.15 294.11 356.053 294.11 354.7C294.11 353.347 293.013 352.25 291.66 352.25C290.307 352.25 289.21 353.347 289.21 354.7C289.21 356.053 290.307 357.15 291.66 357.15Z" fill="#263238"/>
<path d="M301.171 354.7C301.171 355.185 301.027 355.658 300.758 356.061C300.488 356.464 300.106 356.778 299.658 356.964C299.21 357.149 298.718 357.197 298.243 357.103C297.767 357.008 297.331 356.775 296.988 356.432C296.645 356.09 296.412 355.653 296.318 355.178C296.223 354.703 296.272 354.21 296.457 353.762C296.642 353.315 296.956 352.932 297.359 352.663C297.762 352.394 298.236 352.25 298.721 352.25C299.37 352.25 299.993 352.508 300.453 352.968C300.912 353.427 301.171 354.05 301.171 354.7Z" fill="#263238"/>
<path d="M305.65 357.15C307.003 357.15 308.1 356.053 308.1 354.7C308.1 353.347 307.003 352.25 305.65 352.25C304.297 352.25 303.2 353.347 303.2 354.7C303.2 356.053 304.297 357.15 305.65 357.15Z" fill="#263238"/>
<path d="M443.42 361.6C443.42 361.74 407.19 361.86 362.52 361.86C317.85 361.86 281.62 361.74 281.62 361.6C281.62 361.46 317.83 361.34 362.52 361.34C407.21 361.34 443.42 361.45 443.42 361.6Z" fill="#263238"/>
<path d="M413.711 148.29H235.071C231.448 148.29 228.511 151.227 228.511 154.85V319.2C228.511 322.823 231.448 325.76 235.071 325.76H413.711C417.334 325.76 420.271 322.823 420.271 319.2V154.85C420.271 151.227 417.334 148.29 413.711 148.29Z" fill="white"/>
<path d="M413.71 325.76H414.18C414.645 325.722 415.104 325.634 415.55 325.5C416.422 325.233 417.229 324.786 417.918 324.189C418.607 323.591 419.163 322.856 419.55 322.03C420.089 320.791 420.302 319.435 420.17 318.09C420.17 316.6 420.17 314.96 420.17 313.19C420.17 309.65 420.17 305.56 420.17 300.96C420.17 282.56 420.12 255.96 420.08 223.04C420.08 206.59 420.08 188.58 420.08 169.23C420.08 164.403 420.08 159.493 420.08 154.5C420.005 153.279 419.578 152.106 418.85 151.123C418.123 150.14 417.126 149.389 415.98 148.96C414.789 148.583 413.535 148.447 412.29 148.56H376.6H235.09C233.589 148.569 232.139 149.111 231 150.09C229.824 151.083 229.055 152.475 228.84 154C228.771 154.765 228.748 155.533 228.77 156.3V217.87C228.77 241.54 228.77 264.37 228.77 286.12C228.77 297 228.77 307.597 228.77 317.91C228.77 318.55 228.77 319.21 228.77 319.82C228.828 320.434 228.973 321.037 229.2 321.61C229.663 322.758 230.452 323.746 231.47 324.45C232.478 325.153 233.672 325.543 234.9 325.57H253.41H307.22L385.14 325.66H406.32H411.83H413.71H411.83H406.32L385.14 325.71L307.22 325.79H253.41H234.89C233.569 325.757 232.287 325.338 231.201 324.584C230.115 323.831 229.274 322.776 228.78 321.55C228.535 320.935 228.377 320.289 228.31 319.63C228.26 318.95 228.31 318.33 228.31 317.68C228.31 307.367 228.31 296.77 228.31 285.89C228.31 264.14 228.31 241.31 228.31 217.64C228.31 205.8 228.31 193.763 228.31 181.53V156.25C228.283 155.459 228.31 154.667 228.39 153.88C228.61 152.254 229.422 150.765 230.67 149.7C231.896 148.628 233.462 148.026 235.09 148H376.6H412.23C413.53 147.888 414.839 148.037 416.08 148.44C417.306 148.899 418.374 149.703 419.153 150.756C419.932 151.808 420.389 153.063 420.47 154.37C420.47 159.37 420.47 164.29 420.47 169.13C420.47 188.48 420.47 206.49 420.47 222.94C420.47 255.84 420.41 282.46 420.39 300.86C420.39 305.46 420.39 309.55 420.39 313.09C420.39 314.86 420.39 316.5 420.39 317.99C420.517 319.358 420.29 320.735 419.73 321.99C419.229 323.041 418.455 323.939 417.49 324.592C416.525 325.244 415.403 325.627 414.24 325.7L413.71 325.76Z" fill="#263238"/>
<path d="M243 160.59C243 161.247 242.805 161.889 242.44 162.436C242.075 162.982 241.556 163.407 240.949 163.658C240.341 163.909 239.673 163.974 239.029 163.845C238.385 163.717 237.793 163.399 237.329 162.934C236.865 162.469 236.55 161.876 236.423 161.232C236.296 160.587 236.363 159.919 236.616 159.313C236.869 158.706 237.296 158.188 237.843 157.825C238.39 157.461 239.033 157.268 239.69 157.27C240.126 157.27 240.557 157.356 240.959 157.523C241.362 157.69 241.727 157.935 242.034 158.243C242.342 158.551 242.586 158.917 242.751 159.32C242.917 159.723 243.002 160.154 243 160.59Z" fill="#263238"/>
<path d="M249.35 163.9C251.178 163.9 252.66 162.418 252.66 160.59C252.66 158.762 251.178 157.28 249.35 157.28C247.522 157.28 246.04 158.762 246.04 160.59C246.04 162.418 247.522 163.9 249.35 163.9Z" fill="#263238"/>
<path d="M259.031 163.9C260.859 163.9 262.341 162.418 262.341 160.59C262.341 158.762 260.859 157.28 259.031 157.28C257.203 157.28 255.721 158.762 255.721 160.59C255.721 162.418 257.203 163.9 259.031 163.9Z" fill="#263238"/>
<path d="M420.271 170C420.271 170.15 377.341 170.26 324.391 170.26C271.441 170.26 228.511 170.15 228.511 170C228.511 169.85 271.431 169.74 324.391 169.74C377.351 169.74 420.271 169.85 420.271 170Z" fill="#263238"/>
<path d="M351.481 236.85C351.481 236.85 351.551 236.74 351.711 236.54L351.841 236.37L351.971 236.14C352.081 235.954 352.178 235.76 352.261 235.56C352.261 235.45 352.361 235.33 352.401 235.2L352.521 234.78C352.564 234.626 352.598 234.469 352.621 234.31C352.621 234.14 352.681 233.97 352.691 233.79C352.756 232.958 352.716 232.122 352.571 231.3C352.15 229.051 351.38 226.882 350.291 224.87C348.885 222.185 347.242 219.631 345.381 217.24C343.14 214.332 340.697 211.585 338.071 209.02C335.063 206.068 331.852 203.331 328.461 200.83C326.671 199.51 324.781 198.23 322.791 197.03C320.762 195.79 318.654 194.685 316.481 193.72C314.247 192.7 311.896 191.961 309.481 191.52C308.246 191.3 306.985 191.27 305.741 191.43C305.116 191.519 304.507 191.694 303.931 191.95C303.365 192.228 302.854 192.603 302.421 193.06C302.007 193.539 301.688 194.092 301.481 194.69C301.293 195.293 301.188 195.919 301.171 196.55C301.154 197.805 301.326 199.056 301.681 200.26C302.398 202.616 303.405 204.873 304.681 206.98C305.882 209.029 307.219 210.997 308.681 212.87C310.101 214.71 311.591 216.45 313.101 218.08C315.973 221.165 319.061 224.042 322.341 226.69C325.187 229.011 328.194 231.126 331.341 233.02C333.929 234.594 336.653 235.933 339.481 237.02C341.606 237.868 343.849 238.387 346.131 238.56C346.961 238.601 347.793 238.544 348.611 238.39C348.791 238.39 348.951 238.3 349.111 238.26C349.267 238.219 349.42 238.169 349.571 238.11L349.971 237.94L350.321 237.76C350.511 237.656 350.692 237.536 350.861 237.4L351.071 237.25L351.231 237.1C351.411 236.92 351.511 236.84 351.511 236.84L351.241 237.11L351.081 237.26L350.881 237.42C350.71 237.558 350.526 237.679 350.331 237.78L350.001 238L349.591 238.17C349.445 238.232 349.294 238.282 349.141 238.32C348.974 238.377 348.803 238.424 348.631 238.46C347.809 238.628 346.968 238.689 346.131 238.64C343.843 238.484 341.592 237.975 339.461 237.13C336.623 236.044 333.889 234.705 331.291 233.13C328.145 231.235 325.137 229.12 322.291 226.8C319.001 224.156 315.907 221.278 313.031 218.19C311.521 216.56 310.031 214.82 308.601 212.98C307.142 211.097 305.806 209.123 304.601 207.07C303.324 204.953 302.316 202.686 301.601 200.32C301.236 199.101 301.061 197.832 301.081 196.56C301.102 195.918 301.209 195.283 301.401 194.67C301.628 194.05 301.967 193.477 302.401 192.98C302.844 192.505 303.373 192.118 303.961 191.84C304.55 191.577 305.172 191.395 305.811 191.3C307.071 191.14 308.349 191.17 309.601 191.39C312.033 191.835 314.402 192.581 316.651 193.61C318.828 194.576 320.939 195.685 322.971 196.93C324.971 198.13 326.861 199.41 328.651 200.74C332.047 203.246 335.259 205.993 338.261 208.96C340.893 211.529 343.34 214.283 345.581 217.2C347.437 219.598 349.073 222.158 350.471 224.85C351.558 226.872 352.324 229.052 352.741 231.31C352.88 232.139 352.914 232.982 352.841 233.82C352.825 233.992 352.799 234.162 352.761 234.33C352.745 234.49 352.711 234.647 352.661 234.8L352.541 235.23C352.498 235.353 352.448 235.473 352.391 235.59C352.315 235.795 352.215 235.99 352.091 236.17C352.055 236.251 352.012 236.328 351.961 236.4L351.831 236.57L351.481 236.85Z" fill="#FF725E"/>
<path d="M360.55 214.93V214.55V214.34C360.55 214.26 360.55 214.18 360.5 214.08C360.466 213.865 360.409 213.654 360.33 213.45C360.33 213.34 360.25 213.21 360.2 213.09L360 212.69C359.936 212.545 359.855 212.407 359.76 212.28C359.674 212.13 359.577 211.986 359.47 211.85C358.973 211.181 358.387 210.583 357.73 210.07C355.912 208.673 353.888 207.567 351.73 206.79C348.896 205.718 345.971 204.905 342.99 204.36C339.362 203.679 335.689 203.258 332 203.1C327.789 202.895 323.569 202.985 319.37 203.37C317.16 203.58 314.9 203.89 312.61 204.32C310.271 204.742 307.963 205.32 305.7 206.05C303.349 206.762 301.098 207.77 299 209.05C297.932 209.706 296.971 210.522 296.15 211.47C295.745 211.951 295.408 212.486 295.15 213.06C294.903 213.643 294.768 214.267 294.75 214.9C294.77 215.532 294.902 216.155 295.14 216.74C295.402 217.312 295.738 217.847 296.14 218.33C296.966 219.279 297.931 220.098 299 220.76C301.101 222.034 303.351 223.042 305.7 223.76C307.965 224.481 310.273 225.059 312.61 225.49C314.9 225.92 317.16 226.22 319.37 226.43C323.568 226.823 327.789 226.916 332 226.71C335.69 226.562 339.366 226.162 343 225.51C345.981 224.965 348.906 224.152 351.74 223.08C353.894 222.295 355.917 221.189 357.74 219.8C358.395 219.284 358.98 218.686 359.48 218.02C359.587 217.88 359.684 217.733 359.77 217.58C359.865 217.452 359.946 217.315 360.01 217.17L360.21 216.78C360.26 216.65 360.3 216.53 360.34 216.41C360.42 216.207 360.477 215.996 360.51 215.78C360.51 215.69 360.51 215.61 360.56 215.53V215.32V214.93C360.56 214.93 360.56 215.06 360.56 215.32V215.53C360.56 215.61 360.56 215.69 360.56 215.79C360.53 216.005 360.476 216.216 360.4 216.42C360.4 216.54 360.32 216.66 360.27 216.79L360.08 217.19C360.01 217.335 359.929 217.475 359.84 217.61C359.752 217.759 359.655 217.902 359.55 218.04C359.053 218.715 358.468 219.32 357.81 219.84C355.994 221.248 353.97 222.365 351.81 223.15C348.974 224.233 346.046 225.057 343.06 225.61C339.428 226.293 335.753 226.721 332.06 226.89C327.846 227.104 323.622 227.017 319.42 226.63C317.2 226.42 314.93 226.12 312.64 225.69C310.297 225.257 307.982 224.68 305.71 223.96C303.35 223.246 301.089 222.238 298.98 220.96C297.898 220.295 296.924 219.469 296.09 218.51C295.685 218.014 295.349 217.466 295.09 216.88C294.82 216.283 294.681 215.635 294.681 214.98C294.681 214.325 294.82 213.677 295.09 213.08C295.352 212.496 295.688 211.948 296.09 211.45C296.932 210.492 297.913 209.666 299 209C301.114 207.724 303.378 206.716 305.74 206C308.006 205.271 310.318 204.693 312.66 204.27C314.96 203.84 317.22 203.54 319.44 203.33C323.614 202.924 327.811 202.814 332 203C335.693 203.167 339.369 203.598 343 204.29C345.986 204.838 348.915 205.658 351.75 206.74C353.91 207.525 355.934 208.642 357.75 210.05C358.406 210.572 358.991 211.177 359.49 211.85C359.597 211.99 359.694 212.137 359.78 212.29C359.872 212.423 359.952 212.564 360.02 212.71L360.21 213.1C360.26 213.23 360.3 213.36 360.34 213.47C360.416 213.677 360.47 213.892 360.5 214.11C360.5 214.2 360.5 214.29 360.5 214.36V214.58C360.55 214.8 360.55 214.93 360.55 214.93Z" fill="#FF725E"/>
<path d="M348.53 187.66L348.2 187.45L348.02 187.33C347.946 187.288 347.869 187.251 347.79 187.22C347.599 187.116 347.398 187.032 347.19 186.97C347.07 186.97 346.95 186.88 346.82 186.85L346.39 186.76C346.235 186.726 346.078 186.703 345.92 186.69C345.747 186.68 345.573 186.68 345.4 186.69C344.565 186.679 343.732 186.773 342.92 186.97C340.707 187.557 338.596 188.478 336.66 189.7C334.076 191.281 331.643 193.095 329.39 195.12C326.641 197.555 324.068 200.182 321.69 202.98C318.949 206.181 316.439 209.573 314.18 213.13C313 215 311.84 217 310.78 219C309.681 221.108 308.722 223.286 307.91 225.52C307.05 227.824 306.475 230.226 306.2 232.67C306.066 233.918 306.124 235.179 306.37 236.41C306.507 237.026 306.726 237.621 307.02 238.18C307.329 238.732 307.74 239.22 308.23 239.62C308.739 239.99 309.312 240.265 309.92 240.43C310.532 240.578 311.161 240.642 311.79 240.62C313.045 240.55 314.282 240.29 315.46 239.85C317.761 238.977 319.944 237.822 321.96 236.41C323.92 235.067 325.791 233.597 327.56 232.01C329.3 230.46 330.93 228.86 332.45 227.24C335.327 224.161 337.983 220.882 340.4 217.43C342.519 214.431 344.424 211.287 346.1 208.02C347.497 205.333 348.649 202.525 349.54 199.63C350.24 197.448 350.6 195.171 350.61 192.88C350.607 192.048 350.493 191.221 350.27 190.42C350.27 190.24 350.16 190.08 350.11 189.92C350.06 189.76 350 189.62 349.93 189.48L349.74 189.09C349.67 188.97 349.59 188.86 349.53 188.76C349.416 188.572 349.282 188.398 349.13 188.24L348.97 188.04L348.81 187.9L348.53 187.64L348.82 187.89L348.98 188.03C349.041 188.089 349.098 188.152 349.15 188.22C349.301 188.379 349.435 188.553 349.55 188.74C349.62 188.85 349.7 188.95 349.77 189.07L349.96 189.47C350.037 189.61 350.101 189.758 350.15 189.91C350.2 190.07 350.27 190.23 350.31 190.41C350.541 191.213 350.662 192.044 350.67 192.88C350.674 195.177 350.319 197.462 349.62 199.65C348.732 202.553 347.588 205.371 346.2 208.07C344.524 211.344 342.619 214.495 340.5 217.5C338.089 220.963 335.432 224.248 332.55 227.33C331.03 228.96 329.4 230.57 327.65 232.12C325.877 233.71 324.003 235.183 322.04 236.53C320.017 237.952 317.823 239.115 315.51 239.99C314.319 240.435 313.069 240.698 311.8 240.77C311.154 240.792 310.509 240.728 309.88 240.58C309.254 240.403 308.664 240.115 308.14 239.73C307.635 239.319 307.211 238.817 306.89 238.25C306.587 237.679 306.362 237.07 306.22 236.44C305.977 235.195 305.923 233.921 306.06 232.66C306.331 230.201 306.908 227.785 307.78 225.47C308.592 223.233 309.551 221.051 310.65 218.94C311.72 216.86 312.87 214.88 314.06 213C316.332 209.444 318.852 206.053 321.6 202.85C323.983 200.052 326.563 197.429 329.32 195C331.585 192.977 334.028 191.163 336.62 189.58C338.566 188.363 340.687 187.453 342.91 186.88C343.724 186.679 344.561 186.584 345.4 186.6C345.58 186.6 345.75 186.6 345.92 186.6C346.081 186.612 346.242 186.635 346.4 186.67L346.83 186.76L347.2 186.89C347.409 186.955 347.61 187.042 347.8 187.15C347.879 187.181 347.956 187.218 348.03 187.26L348.21 187.39L348.53 187.66Z" fill="#FF725E"/>
<path d="M294.351 228.52C294.521 228.691 294.636 228.908 294.683 229.145C294.729 229.381 294.705 229.626 294.612 229.849C294.52 230.071 294.363 230.261 294.163 230.395C293.962 230.529 293.727 230.6 293.486 230.6C293.245 230.6 293.009 230.529 292.809 230.395C292.608 230.261 292.452 230.071 292.359 229.849C292.267 229.626 292.242 229.381 292.289 229.145C292.335 228.908 292.451 228.691 292.621 228.52C292.734 228.406 292.869 228.316 293.017 228.254C293.166 228.192 293.325 228.16 293.486 228.16C293.646 228.16 293.806 228.192 293.954 228.254C294.102 228.316 294.237 228.406 294.351 228.52Z" fill="#FF725E"/>
<path d="M363.34 190.63C363.342 190.874 363.271 191.112 363.137 191.316C363.003 191.52 362.812 191.679 362.588 191.773C362.363 191.868 362.115 191.894 361.876 191.848C361.637 191.801 361.417 191.685 361.244 191.513C361.071 191.342 360.953 191.123 360.904 190.884C360.856 190.645 360.88 190.397 360.973 190.172C361.065 189.946 361.223 189.754 361.425 189.618C361.628 189.482 361.866 189.41 362.11 189.41C362.271 189.409 362.431 189.439 362.58 189.5C362.729 189.561 362.865 189.65 362.979 189.764C363.093 189.877 363.184 190.012 363.246 190.161C363.308 190.309 363.34 190.469 363.34 190.63Z" fill="#FF725E"/>
<path d="M302.07 232.54C302.07 232.601 302.052 232.661 302.018 232.712C301.984 232.763 301.935 232.803 301.879 232.826C301.822 232.85 301.76 232.856 301.7 232.844C301.64 232.832 301.584 232.803 301.541 232.759C301.498 232.716 301.468 232.661 301.456 232.6C301.444 232.54 301.45 232.478 301.474 232.421C301.497 232.365 301.537 232.316 301.588 232.282C301.639 232.248 301.699 232.23 301.76 232.23C301.842 232.23 301.921 232.263 301.979 232.321C302.038 232.379 302.07 232.458 302.07 232.54Z" fill="#FF725E"/>
<path d="M308.7 198.28C308.7 198.341 308.682 198.401 308.648 198.452C308.614 198.503 308.565 198.543 308.509 198.566C308.452 198.59 308.39 198.596 308.33 198.584C308.269 198.572 308.214 198.543 308.171 198.499C308.128 198.456 308.098 198.401 308.086 198.34C308.074 198.28 308.08 198.218 308.104 198.161C308.127 198.105 308.167 198.056 308.218 198.022C308.269 197.988 308.329 197.97 308.39 197.97C308.472 197.97 308.551 198.003 308.609 198.061C308.667 198.119 308.7 198.198 308.7 198.28Z" fill="#FF725E"/>
<path d="M357.19 214.93C357.19 215.012 357.158 215.091 357.1 215.149C357.041 215.207 356.963 215.24 356.88 215.24C356.798 215.24 356.719 215.207 356.661 215.149C356.603 215.091 356.57 215.012 356.57 214.93C356.57 214.848 356.603 214.769 356.661 214.711C356.719 214.653 356.798 214.62 356.88 214.62C356.963 214.62 357.041 214.653 357.1 214.711C357.158 214.769 357.19 214.848 357.19 214.93Z" fill="#FF725E"/>
<path d="M361.511 200.45C361.511 200.532 361.478 200.611 361.42 200.669C361.362 200.727 361.283 200.76 361.201 200.76C361.118 200.76 361.04 200.727 360.981 200.669C360.923 200.611 360.891 200.532 360.891 200.45C360.891 200.368 360.923 200.289 360.981 200.231C361.04 200.173 361.118 200.14 361.201 200.14C361.283 200.14 361.362 200.173 361.42 200.231C361.478 200.289 361.511 200.368 361.511 200.45Z" fill="#FF725E"/>
<path d="M340.57 221.76H336.73V200.85C336.73 198.482 335.789 196.21 334.114 194.535C332.44 192.861 330.168 191.92 327.8 191.92C325.432 191.92 323.16 192.861 321.486 194.535C319.811 196.21 318.87 198.482 318.87 200.85V221.76H315V200.85C315 197.463 316.345 194.215 318.74 191.82C321.135 189.425 324.383 188.08 327.77 188.08C331.157 188.08 334.405 189.425 336.8 191.82C339.195 194.215 340.54 197.463 340.54 200.85L340.57 221.76Z" fill="#FF725E"/>
<g opacity="0.3">
<path opacity="0.3" d="M340.57 221.76H336.73V200.85C336.73 198.482 335.789 196.21 334.114 194.535C332.44 192.861 330.168 191.92 327.8 191.92C325.432 191.92 323.16 192.861 321.486 194.535C319.811 196.21 318.87 198.482 318.87 200.85V221.76H315V200.85C315 197.463 316.345 194.215 318.74 191.82C321.135 189.425 324.383 188.08 327.77 188.08C331.157 188.08 334.405 189.425 336.8 191.82C339.195 194.215 340.54 197.463 340.54 200.85L340.57 221.76Z" fill="black"/>
</g>
<path d="M342.76 212.46H312.84C311.597 212.46 310.59 213.467 310.59 214.71V232.29C310.59 233.533 311.597 234.54 312.84 234.54H342.76C344.002 234.54 345.01 233.533 345.01 232.29V214.71C345.01 213.467 344.002 212.46 342.76 212.46Z" fill="#FF725E"/>
<g opacity="0.3">
<path opacity="0.3" d="M330.68 220.63C330.684 220.093 330.538 219.566 330.258 219.107C329.979 218.649 329.576 218.278 329.097 218.036C328.617 217.794 328.08 217.691 327.545 217.739C327.01 217.787 326.499 217.983 326.07 218.305C325.641 218.628 325.31 219.064 325.116 219.564C324.921 220.065 324.87 220.61 324.969 221.138C325.068 221.665 325.312 222.155 325.675 222.551C326.037 222.948 326.503 223.235 327.02 223.38V227.68H328.58V223.38C329.182 223.214 329.714 222.855 330.093 222.359C330.472 221.862 330.678 221.255 330.68 220.63Z" fill="black"/>
</g>
<path d="M312.43 232.45C312.35 232.45 312.28 228.77 312.28 224.23C312.28 219.69 312.35 216 312.43 216C312.51 216 312.57 219.68 312.57 224.23C312.57 228.78 312.5 232.45 312.43 232.45Z" fill="#FAFAFA"/>
<path d="M325.551 224.31C325.551 224.31 325.411 224.31 325.211 224.12C324.927 223.909 324.678 223.656 324.471 223.37C324.106 222.899 323.852 222.352 323.726 221.769C323.6 221.187 323.606 220.584 323.743 220.004C323.88 219.424 324.145 218.882 324.518 218.418C324.892 217.954 325.364 217.578 325.901 217.32C326.214 217.152 326.551 217.034 326.901 216.97C327.03 216.946 327.162 216.946 327.291 216.97C326.849 217.12 326.418 217.3 326.001 217.51C325.513 217.779 325.086 218.148 324.749 218.591C324.411 219.035 324.17 219.545 324.041 220.087C323.912 220.629 323.898 221.193 324 221.741C324.101 222.289 324.316 222.81 324.631 223.27C324.909 223.641 325.217 223.989 325.551 224.31Z" fill="#FAFAFA"/>
<path d="M378.9 253.47H272.93C267.783 253.47 263.61 257.643 263.61 262.79V263.93C263.61 269.077 267.783 273.25 272.93 273.25H378.9C384.048 273.25 388.22 269.077 388.22 263.93V262.79C388.22 257.643 384.048 253.47 378.9 253.47Z" fill="#F5F5F5"/>
<path d="M379.811 280.59H273.84C268.693 280.59 264.521 284.763 264.521 289.91V291.05C264.521 296.197 268.693 300.37 273.84 300.37H379.811C384.958 300.37 389.131 296.197 389.131 291.05V289.91C389.131 284.763 384.958 280.59 379.811 280.59Z" fill="#F5F5F5"/>
<path d="M283.301 263.2V260.34H284.491V263.16C284.491 264.16 284.911 264.53 285.631 264.53C286.351 264.53 286.771 264.13 286.771 263.16V260.34H287.941V263.2C287.941 263.815 287.696 264.405 287.261 264.84C286.826 265.276 286.236 265.52 285.621 265.52C285.005 265.52 284.415 265.276 283.98 264.84C283.545 264.405 283.301 263.815 283.301 263.2Z" fill="#263238"/>
<path d="M288.65 265.09L289.02 264.27C289.435 264.517 289.908 264.648 290.39 264.65C290.92 264.65 291.11 264.51 291.11 264.29C291.11 263.65 288.74 264.29 288.74 262.74C288.74 261.99 289.41 261.46 290.56 261.46C291.085 261.452 291.603 261.572 292.07 261.81L291.69 262.62C291.347 262.424 290.956 262.324 290.56 262.33C290.05 262.33 289.83 262.49 289.83 262.69C289.83 263.36 292.2 262.69 292.2 264.26C292.2 264.99 291.53 265.51 290.35 265.51C289.757 265.523 289.17 265.378 288.65 265.09Z" fill="#263238"/>
<path d="M296.74 263.81H293.74C293.802 264.056 293.95 264.271 294.158 264.416C294.365 264.562 294.618 264.627 294.87 264.6C295.054 264.608 295.238 264.579 295.41 264.513C295.582 264.448 295.738 264.348 295.87 264.22L296.48 264.88C296.272 265.096 296.019 265.264 295.739 265.372C295.46 265.481 295.16 265.528 294.86 265.51C294.578 265.546 294.29 265.52 294.018 265.436C293.746 265.352 293.495 265.21 293.282 265.02C293.069 264.831 292.898 264.598 292.783 264.338C292.667 264.077 292.608 263.795 292.61 263.51C292.61 263.239 292.665 262.97 292.772 262.721C292.878 262.471 293.035 262.246 293.231 262.059C293.428 261.872 293.66 261.727 293.914 261.633C294.169 261.538 294.439 261.496 294.71 261.51C294.977 261.503 295.243 261.55 295.491 261.648C295.74 261.745 295.966 261.891 296.157 262.078C296.348 262.264 296.5 262.487 296.604 262.733C296.707 262.979 296.761 263.243 296.76 263.51C296.76 263.59 296.74 263.71 296.74 263.81ZM293.74 263.14H295.67C295.613 262.928 295.487 262.741 295.313 262.608C295.138 262.474 294.925 262.402 294.705 262.402C294.486 262.402 294.272 262.474 294.098 262.608C293.924 262.741 293.798 262.928 293.74 263.14Z" fill="#263238"/>
<path d="M300.001 261.46V262.52H299.741C299.6 262.519 299.462 262.548 299.333 262.604C299.205 262.661 299.09 262.744 298.996 262.847C298.901 262.951 298.83 263.073 298.786 263.207C298.742 263.34 298.727 263.481 298.741 263.62V265.47H297.601V261.54H298.691V262C298.851 261.814 299.054 261.668 299.281 261.574C299.509 261.48 299.755 261.441 300.001 261.46Z" fill="#263238"/>
<path d="M304.661 263.2V265.45H303.521V263.38C303.521 262.74 303.231 262.45 302.721 262.45C302.211 262.45 301.781 262.79 301.781 263.51V265.45H300.641V261.52H301.731V262C301.899 261.828 302.102 261.693 302.326 261.603C302.55 261.514 302.79 261.472 303.031 261.48C303.256 261.465 303.483 261.5 303.693 261.583C303.904 261.665 304.094 261.793 304.249 261.957C304.405 262.122 304.522 262.318 304.594 262.533C304.665 262.748 304.688 262.975 304.661 263.2Z" fill="#263238"/>
<path d="M309.171 263.21V265.45H308.101V265C307.969 265.191 307.788 265.343 307.576 265.44C307.365 265.537 307.132 265.575 306.901 265.55C305.981 265.55 305.431 265.04 305.431 264.36C305.431 263.68 305.921 263.18 307.121 263.18H308.001C308.001 262.7 307.711 262.41 307.091 262.41C306.684 262.409 306.288 262.538 305.961 262.78L305.551 261.98C306.056 261.653 306.649 261.486 307.251 261.5C308.471 261.46 309.171 262 309.171 263.21ZM308.031 264.21V263.81H307.251C306.711 263.81 306.551 264.01 306.551 264.27C306.551 264.53 306.791 264.75 307.191 264.75C307.365 264.755 307.537 264.706 307.682 264.609C307.827 264.513 307.938 264.373 308.001 264.21H308.031Z" fill="#263238"/>
<path d="M316.84 263.2V265.45H315.7V263.38C315.7 262.74 315.42 262.45 314.96 262.45C314.5 262.45 314.09 262.78 314.09 263.45V265.45H313V263.38C313 262.74 312.73 262.45 312.25 262.45C311.77 262.45 311.39 262.78 311.39 263.45V265.45H310.2V261.52H311.29V262C311.445 261.829 311.635 261.694 311.848 261.604C312.06 261.514 312.29 261.472 312.52 261.48C312.774 261.468 313.027 261.522 313.255 261.636C313.482 261.75 313.677 261.92 313.82 262.13C313.99 261.919 314.207 261.75 314.453 261.637C314.7 261.524 314.969 261.47 315.24 261.48C315.464 261.466 315.689 261.502 315.898 261.586C316.106 261.669 316.294 261.797 316.447 261.962C316.6 262.126 316.714 262.323 316.782 262.537C316.85 262.751 316.87 262.977 316.84 263.2Z" fill="#263238"/>
<path d="M321.741 263.81H318.741C318.792 264.059 318.936 264.28 319.144 264.427C319.352 264.574 319.608 264.636 319.861 264.6C320.044 264.608 320.228 264.578 320.4 264.512C320.571 264.447 320.728 264.348 320.861 264.22L321.461 264.88C321.253 265.097 321 265.265 320.72 265.374C320.44 265.483 320.14 265.529 319.841 265.51C319.559 265.544 319.272 265.518 319.001 265.433C318.73 265.347 318.48 265.206 318.269 265.016C318.057 264.827 317.887 264.595 317.772 264.335C317.657 264.075 317.599 263.794 317.601 263.51C317.6 263.239 317.655 262.97 317.762 262.721C317.869 262.471 318.025 262.246 318.221 262.059C318.418 261.872 318.65 261.727 318.905 261.633C319.159 261.538 319.43 261.496 319.701 261.51C320.231 261.51 320.74 261.721 321.115 262.096C321.49 262.471 321.701 262.98 321.701 263.51C321.761 263.59 321.751 263.71 321.741 263.81ZM318.741 263.14H320.681C320.648 262.903 320.527 262.687 320.341 262.537C320.155 262.387 319.919 262.312 319.681 262.33C319.453 262.326 319.232 262.406 319.06 262.556C318.888 262.706 318.778 262.914 318.751 263.14H318.741Z" fill="#263238"/>
<path d="M329.28 263.45C329.28 264.76 328.68 265.51 327.78 265.51C327.567 265.524 327.355 265.47 327.175 265.354C326.995 265.239 326.857 265.069 326.78 264.87C326.647 265.078 326.462 265.247 326.242 265.359C326.022 265.472 325.776 265.524 325.53 265.51C325.073 265.462 324.649 265.247 324.341 264.905C324.033 264.564 323.863 264.12 323.863 263.66C323.863 263.2 324.033 262.756 324.341 262.415C324.649 262.073 325.073 261.858 325.53 261.81C325.742 261.8 325.953 261.839 326.147 261.924C326.342 262.009 326.514 262.138 326.65 262.3V261.87H327.65V264.23C327.65 264.58 327.8 264.7 328 264.7C328.2 264.7 328.54 264.31 328.54 263.47C328.544 263.121 328.475 262.775 328.337 262.455C328.199 262.134 327.995 261.846 327.739 261.609C327.482 261.373 327.179 261.193 326.849 261.081C326.518 260.969 326.168 260.928 325.82 260.96C325.117 260.96 324.443 261.239 323.946 261.736C323.449 262.233 323.17 262.907 323.17 263.61C323.17 264.313 323.449 264.987 323.946 265.484C324.443 265.981 325.117 266.26 325.82 266.26C326.318 266.259 326.809 266.15 327.26 265.94L327.49 266.61C326.966 266.849 326.396 266.969 325.82 266.96C325.365 266.985 324.91 266.917 324.483 266.76C324.056 266.603 323.665 266.361 323.334 266.048C323.003 265.735 322.74 265.357 322.56 264.939C322.38 264.521 322.287 264.07 322.287 263.615C322.287 263.16 322.38 262.709 322.56 262.291C322.74 261.873 323.003 261.495 323.334 261.182C323.665 260.869 324.056 260.627 324.483 260.47C324.91 260.313 325.365 260.245 325.82 260.27C326.26 260.234 326.703 260.29 327.12 260.433C327.537 260.576 327.921 260.805 328.245 261.103C328.57 261.402 328.83 261.765 329.008 262.168C329.186 262.572 329.279 263.009 329.28 263.45ZM326.67 263.66C326.684 263.532 326.671 263.402 326.631 263.28C326.591 263.157 326.525 263.045 326.438 262.95C326.351 262.855 326.244 262.78 326.126 262.73C326.007 262.68 325.879 262.656 325.75 262.66C325.485 262.66 325.231 262.765 325.043 262.953C324.855 263.14 324.75 263.395 324.75 263.66C324.75 263.925 324.855 264.18 325.043 264.367C325.231 264.555 325.485 264.66 325.75 264.66C325.879 264.664 326.007 264.64 326.126 264.59C326.244 264.539 326.351 264.464 326.438 264.37C326.525 264.275 326.591 264.162 326.631 264.04C326.671 263.918 326.684 263.788 326.67 263.66Z" fill="#263238"/>
<path d="M336.73 263.2V265.45H335.59V263.38C335.59 262.74 335.31 262.45 334.85 262.45C334.39 262.45 333.98 262.78 333.98 263.45V265.45H332.84V263.38C332.84 262.74 332.57 262.45 332.09 262.45C331.61 262.45 331.23 262.78 331.23 263.45V265.45H330.09V261.52H331.18V262C331.334 261.829 331.525 261.693 331.737 261.604C331.95 261.514 332.179 261.472 332.41 261.48C332.664 261.468 332.917 261.522 333.144 261.636C333.372 261.75 333.567 261.92 333.71 262.13C333.878 261.919 334.093 261.751 334.338 261.638C334.583 261.525 334.85 261.471 335.12 261.48C335.345 261.465 335.57 261.499 335.78 261.582C335.99 261.665 336.179 261.793 336.333 261.958C336.487 262.122 336.603 262.319 336.672 262.534C336.74 262.749 336.76 262.976 336.73 263.2Z" fill="#263238"/>
<path d="M341.23 263.21V265.45H340.17V265C340.038 265.191 339.857 265.343 339.646 265.44C339.434 265.537 339.201 265.575 338.97 265.55C338.05 265.55 337.5 265.04 337.5 264.36C337.5 263.68 337.99 263.18 339.19 263.18H340.09C340.09 262.7 339.8 262.41 339.19 262.41C338.783 262.405 338.385 262.535 338.06 262.78L337.65 261.98C338.153 261.655 338.741 261.488 339.34 261.5C340.54 261.46 341.23 262 341.23 263.21ZM340.09 264.21V263.81H339.31C338.78 263.81 338.61 264.01 338.61 264.27C338.61 264.53 338.85 264.75 339.25 264.75C339.429 264.762 339.608 264.716 339.759 264.618C339.91 264.521 340.026 264.378 340.09 264.21Z" fill="#263238"/>
<path d="M342.13 260.34C342.131 260.25 342.15 260.162 342.187 260.08C342.224 259.998 342.278 259.925 342.345 259.864C342.411 259.804 342.49 259.759 342.575 259.73C342.66 259.702 342.75 259.692 342.84 259.7C342.963 259.713 343.079 259.762 343.174 259.84C343.27 259.918 343.341 260.022 343.379 260.14C343.417 260.257 343.42 260.383 343.388 260.502C343.356 260.621 343.29 260.729 343.198 260.812C343.107 260.894 342.993 260.949 342.871 260.968C342.749 260.988 342.624 260.971 342.511 260.922C342.399 260.872 342.302 260.79 342.235 260.687C342.167 260.584 342.131 260.463 342.13 260.34ZM342.27 261.52H343.4V265.45H342.27V261.52Z" fill="#263238"/>
<path d="M344.471 260H345.611V265.42H344.471V260Z" fill="#263238"/>
<path d="M346.391 264.8C346.391 264.612 346.465 264.431 346.599 264.298C346.732 264.165 346.912 264.09 347.101 264.09C347.289 264.09 347.47 264.165 347.603 264.298C347.736 264.431 347.811 264.612 347.811 264.8C347.811 264.988 347.736 265.169 347.603 265.302C347.47 265.435 347.289 265.51 347.101 265.51C346.912 265.51 346.732 265.435 346.599 265.302C346.465 265.169 346.391 264.988 346.391 264.8Z" fill="#263238"/>
<path d="M348.24 263.49C348.239 263.211 348.296 262.934 348.408 262.678C348.521 262.422 348.685 262.193 348.891 262.004C349.098 261.816 349.341 261.673 349.606 261.584C349.871 261.495 350.152 261.463 350.43 261.49C350.79 261.46 351.151 261.539 351.465 261.717C351.779 261.896 352.032 262.165 352.19 262.49L351.31 262.96C351.209 262.811 351.071 262.691 350.91 262.61C350.748 262.53 350.569 262.493 350.389 262.502C350.209 262.511 350.035 262.566 349.882 262.662C349.73 262.758 349.605 262.891 349.519 263.049C349.433 263.208 349.389 263.385 349.392 263.566C349.394 263.746 349.443 263.922 349.534 264.078C349.624 264.234 349.754 264.363 349.909 264.455C350.064 264.546 350.24 264.596 350.42 264.6C350.604 264.6 350.784 264.55 350.941 264.455C351.098 264.36 351.226 264.223 351.31 264.06L352.19 264.54C352.03 264.863 351.777 265.131 351.463 265.309C351.149 265.487 350.79 265.568 350.43 265.54C350.148 265.567 349.863 265.534 349.594 265.442C349.326 265.351 349.08 265.203 348.872 265.009C348.665 264.815 348.502 264.58 348.393 264.318C348.284 264.056 348.232 263.774 348.24 263.49Z" fill="#263238"/>
<path d="M352.51 263.49C352.478 263.057 352.577 262.625 352.794 262.25C353.011 261.874 353.336 261.572 353.726 261.384C354.117 261.196 354.556 261.13 354.985 261.194C355.413 261.258 355.813 261.45 356.131 261.745C356.45 262.04 356.672 262.423 356.769 262.846C356.866 263.269 356.834 263.711 356.676 264.115C356.518 264.519 356.243 264.867 355.885 265.112C355.527 265.357 355.104 265.489 354.67 265.49C354.394 265.512 354.117 265.477 353.855 265.386C353.594 265.296 353.354 265.152 353.151 264.964C352.948 264.776 352.786 264.548 352.676 264.294C352.565 264.04 352.509 263.767 352.51 263.49ZM355.67 263.49C355.652 263.297 355.579 263.113 355.459 262.961C355.339 262.809 355.178 262.695 354.994 262.633C354.811 262.571 354.613 262.563 354.425 262.611C354.238 262.66 354.068 262.761 353.937 262.904C353.806 263.047 353.719 263.225 353.687 263.416C353.656 263.607 353.68 263.803 353.758 263.981C353.835 264.158 353.963 264.309 354.125 264.416C354.287 264.522 354.476 264.579 354.67 264.58C354.809 264.581 354.947 264.552 355.075 264.496C355.202 264.44 355.317 264.359 355.411 264.256C355.505 264.153 355.577 264.032 355.621 263.9C355.666 263.768 355.682 263.629 355.67 263.49Z" fill="#263238"/>
<path d="M364.23 263.2V265.45H363.09V263.38C363.09 262.74 362.8 262.45 362.34 262.45C361.88 262.45 361.47 262.78 361.47 263.45V265.45H360.33V263.38C360.33 262.74 360.06 262.45 359.59 262.45C359.12 262.45 358.73 262.78 358.73 263.45V265.45H357.59V261.52H358.67V262C358.826 261.829 359.018 261.693 359.233 261.603C359.447 261.514 359.678 261.471 359.91 261.48C360.163 261.467 360.415 261.52 360.641 261.634C360.867 261.748 361.06 261.919 361.2 262.13C361.371 261.92 361.588 261.752 361.834 261.639C362.08 261.526 362.349 261.472 362.62 261.48C362.845 261.465 363.07 261.499 363.28 261.582C363.49 261.665 363.679 261.793 363.833 261.958C363.987 262.122 364.103 262.319 364.172 262.534C364.24 262.749 364.26 262.976 364.23 263.2Z" fill="#263238"/>
<path d="M298.57 290.59L300.42 291.59L299.59 292.98L297.72 291.88V293.94H296.12V291.86L294.31 293L293.49 291.61L295.35 290.61L293.49 289.61L294.31 288.22L296.18 289.34V287.27H297.78V289.34L299.65 288.22L300.48 289.61L298.57 290.59Z" fill="#263238"/>
<path d="M306.281 290.59L308.131 291.59L307.301 293L305.431 291.9V293.96H303.841V291.88L302.001 293L301.181 291.61L303.031 290.61L301.181 289.61L302.001 288.22L303.871 289.34V287.27H305.461V289.34L307.331 288.22L308.161 289.61L306.281 290.59Z" fill="#263238"/>
<path d="M314 290.59L315.85 291.59L315 293L313.14 291.9V293.96H311.54V291.88L309.72 293L308.91 291.61L310.76 290.61L308.91 289.61L309.72 288.22L311.59 289.34V287.27H313.19V289.34L315.05 288.22L315.89 289.61L314 290.59Z" fill="#263238"/>
<path d="M321.69 290.59L323.54 291.59L322.71 292.98L320.84 291.88V293.94H319.24V291.86L317.43 293L316.61 291.61L318.47 290.61L316.61 289.61L317.43 288.22L319.3 289.34V287.27H320.9V289.34L322.77 288.22L323.6 289.61L321.69 290.59Z" fill="#263238"/>
<path d="M329.4 290.59L331.25 291.59L330.42 292.98L328.55 291.88V293.94H327V291.86L325.14 293L324.32 291.61L326.17 290.61L324.32 289.61L325.14 288.22L327 289.3V287.23H328.59V289.3L330.46 288.18L331.29 289.57L329.4 290.59Z" fill="#263238"/>
<path d="M337.11 290.59L338.96 291.59L338.13 292.98L336.26 291.88V293.94H334.66V291.86L332.84 293L332.03 291.61L333.88 290.61L332.03 289.61L332.84 288.22L334.71 289.34V287.27H336.31V289.34L338.18 288.22L339.01 289.61L337.11 290.59Z" fill="#263238"/>
<path d="M344.81 290.59L346.66 291.59L345.83 292.98L343.96 291.88V293.94H342.36V291.86L340.55 293L339.73 291.61L341.59 290.61L339.73 289.61L340.55 288.22L342.42 289.34V287.27H344V289.34L345.87 288.22L346.7 289.61L344.81 290.59Z" fill="#263238"/>
<path d="M352.52 290.59L354.37 291.59L353.54 292.98L351.67 291.88V293.94H350.08V291.86L348.26 293L347.44 291.61L349.29 290.61L347.44 289.61L348.26 288.22L350.13 289.34V287.27H351.72V289.34L353.59 288.22L354.42 289.61L352.52 290.59Z" fill="#263238"/>
<path d="M261.7 235.35H183.8C183.268 235.35 182.74 235.455 182.248 235.659C181.756 235.863 181.309 236.163 180.933 236.54C180.557 236.917 180.259 237.365 180.056 237.857C179.853 238.35 179.749 238.877 179.75 239.41V274.89C179.744 275.424 179.844 275.953 180.045 276.448C180.246 276.942 180.544 277.391 180.922 277.769C181.299 278.146 181.748 278.444 182.243 278.645C182.737 278.847 183.267 278.947 183.8 278.94H216.48L223.42 287.85L229.21 278.94H261.7C262.232 278.94 262.759 278.835 263.25 278.632C263.742 278.428 264.188 278.13 264.564 277.754C264.94 277.378 265.238 276.931 265.442 276.44C265.646 275.948 265.75 275.422 265.75 274.89V239.41C265.75 238.335 265.324 237.304 264.565 236.543C263.805 235.782 262.775 235.353 261.7 235.35Z" fill="white"/>
<path d="M261.7 235.35H262.08C262.46 235.383 262.833 235.467 263.19 235.6C263.774 235.809 264.301 236.152 264.73 236.6C265.343 237.259 265.72 238.103 265.8 239C265.88 242.86 265.86 248.48 265.89 255.6C265.89 259.16 265.89 263.09 265.89 267.35C265.89 269.49 265.89 271.7 265.89 274C265.917 274.588 265.891 275.177 265.81 275.76C265.687 276.367 265.435 276.94 265.07 277.44C264.696 277.953 264.212 278.375 263.653 278.676C263.094 278.978 262.474 279.15 261.84 279.18H229.16L229.36 279.08C227.54 281.87 225.58 284.9 223.58 287.98L223.39 288.27L223.17 288L216.23 279.1L216.43 279.2H185C184.43 279.2 183.9 279.2 183.29 279.2C182.403 279.094 181.57 278.716 180.906 278.118C180.241 277.52 179.778 276.732 179.58 275.86C179.481 275.299 179.444 274.729 179.47 274.16V259.51C179.47 255.25 179.47 251.073 179.47 246.98V239.41C179.471 238.883 179.569 238.361 179.76 237.87C180.131 236.894 180.841 236.085 181.76 235.59C182.219 235.355 182.718 235.206 183.23 235.15C183.723 235.125 184.217 235.125 184.71 235.15H193.22H204H223.34L251.34 235.23L258.95 235.28H260.95H261.63H260.95H258.95L251.34 235.33L223.34 235.41H204H184.79C184.31 235.41 183.79 235.41 183.36 235.41C182.906 235.462 182.465 235.598 182.06 235.81C181.233 236.234 180.59 236.945 180.25 237.81C180.079 238.246 179.991 238.711 179.99 239.18V240.68C179.99 242.68 179.99 244.68 179.99 246.75V259.28C179.99 263.533 179.99 267.867 179.99 272.28V273.94C179.959 274.472 179.989 275.005 180.08 275.53C180.256 276.296 180.665 276.989 181.251 277.513C181.836 278.038 182.57 278.369 183.35 278.46C183.86 278.51 184.45 278.46 185 278.46H216.6L216.68 278.56L223.62 287.46H223.21L229 278.56L229.07 278.45H229.21H261.87C262.445 278.431 263.008 278.28 263.516 278.01C264.024 277.739 264.463 277.356 264.8 276.89C265.139 276.441 265.371 275.921 265.48 275.37C265.557 274.81 265.584 274.245 265.56 273.68C265.56 271.38 265.56 269.17 265.56 267.03C265.56 262.77 265.56 258.84 265.56 255.28C265.56 248.18 265.56 242.56 265.61 238.69C265.522 237.854 265.172 237.066 264.61 236.44C264.2 235.981 263.69 235.622 263.12 235.39C262.651 235.309 262.173 235.296 261.7 235.35Z" fill="#263238"/>
<path d="M208.16 245.37V246.68H207.31V245.36L205.87 243H206.78L207.78 244.64L208.78 243H209.62L208.16 245.37Z" fill="#263238"/>
<path d="M209.58 244.83C209.562 244.431 209.664 244.036 209.873 243.695C210.081 243.355 210.387 243.085 210.75 242.919C211.114 242.754 211.519 242.701 211.912 242.768C212.306 242.835 212.671 243.018 212.959 243.294C213.248 243.569 213.448 243.925 213.533 244.316C213.617 244.706 213.583 245.112 213.435 245.483C213.287 245.854 213.031 246.172 212.7 246.396C212.37 246.62 211.979 246.74 211.58 246.74C211.322 246.752 211.064 246.712 210.822 246.621C210.579 246.531 210.358 246.392 210.171 246.213C209.984 246.035 209.835 245.82 209.734 245.582C209.632 245.345 209.58 245.089 209.58 244.83ZM212.76 244.83C212.758 244.601 212.688 244.378 212.56 244.188C212.431 243.999 212.249 243.852 212.037 243.765C211.825 243.679 211.592 243.658 211.368 243.704C211.143 243.749 210.938 243.861 210.776 244.023C210.615 244.186 210.506 244.393 210.462 244.617C210.418 244.842 210.441 245.075 210.529 245.286C210.618 245.498 210.766 245.678 210.957 245.805C211.147 245.932 211.371 246 211.6 246C211.754 246.004 211.908 245.977 212.051 245.919C212.195 245.862 212.325 245.776 212.433 245.666C212.542 245.556 212.627 245.426 212.683 245.282C212.74 245.138 212.766 244.984 212.76 244.83Z" fill="#263238"/>
<path d="M214.25 245.05V243H215.11V245C215.11 245.7 215.42 246 215.93 246C216.44 246 216.76 245.71 216.76 245V243H217.61V245.07C217.61 245.516 217.433 245.943 217.118 246.258C216.803 246.573 216.376 246.75 215.93 246.75C215.484 246.75 215.057 246.573 214.742 246.258C214.427 245.943 214.25 245.516 214.25 245.07V245.05Z" fill="#263238"/>
<path d="M220.82 246.68L220.11 245.68H219.32V246.68H218.46V243H220.06C221.06 243 221.67 243.51 221.67 244.34C221.681 244.59 221.614 244.837 221.477 245.047C221.341 245.257 221.143 245.419 220.91 245.51L221.74 246.7L220.82 246.68ZM220.02 243.68H219.32V245H220.02C220.54 245 220.8 244.75 220.8 244.35C220.8 243.95 220.54 243.67 220 243.67L220.02 243.68Z" fill="#263238"/>
<path d="M223.62 244.83C223.623 244.42 223.753 244.021 223.99 243.687C224.228 243.352 224.563 243.099 224.949 242.962C225.336 242.824 225.755 242.809 226.151 242.918C226.546 243.026 226.898 243.254 227.16 243.57L226.61 244.08C226.497 243.94 226.353 243.828 226.191 243.752C226.028 243.676 225.85 243.638 225.67 243.64C225.375 243.667 225.1 243.804 224.9 244.023C224.7 244.242 224.589 244.528 224.589 244.825C224.589 245.122 224.7 245.408 224.9 245.627C225.1 245.846 225.375 245.983 225.67 246.01C225.849 246.014 226.027 245.978 226.19 245.903C226.353 245.829 226.496 245.718 226.61 245.58L227.16 246.08C226.899 246.395 226.547 246.623 226.153 246.732C225.758 246.841 225.34 246.826 224.954 246.69C224.568 246.554 224.233 246.302 223.995 245.97C223.756 245.637 223.625 245.239 223.62 244.83Z" fill="#263238"/>
<path d="M227.43 244.83C227.412 244.431 227.514 244.036 227.722 243.695C227.931 243.355 228.236 243.085 228.6 242.919C228.963 242.754 229.368 242.701 229.762 242.768C230.156 242.835 230.52 243.018 230.809 243.294C231.098 243.569 231.297 243.925 231.382 244.316C231.467 244.706 231.433 245.112 231.285 245.483C231.136 245.854 230.88 246.172 230.55 246.396C230.219 246.62 229.829 246.74 229.43 246.74C229.171 246.752 228.913 246.712 228.671 246.621C228.429 246.531 228.208 246.392 228.021 246.213C227.834 246.035 227.685 245.82 227.583 245.582C227.482 245.345 227.429 245.089 227.43 244.83ZM230.61 244.83C230.606 244.601 230.534 244.379 230.405 244.191C230.275 244.003 230.092 243.857 229.88 243.773C229.668 243.688 229.435 243.668 229.211 243.715C228.988 243.762 228.783 243.874 228.623 244.037C228.462 244.2 228.354 244.406 228.311 244.631C228.268 244.855 228.292 245.088 228.38 245.298C228.468 245.509 228.617 245.689 228.807 245.816C228.998 245.942 229.221 246.01 229.45 246.01C229.605 246.014 229.759 245.987 229.903 245.928C230.047 245.87 230.178 245.783 230.287 245.673C230.396 245.562 230.48 245.43 230.536 245.285C230.592 245.14 230.617 244.985 230.61 244.83Z" fill="#263238"/>
<path d="M232.13 243H233.82C234.079 242.973 234.341 243.001 234.589 243.081C234.836 243.162 235.064 243.294 235.258 243.468C235.451 243.643 235.606 243.856 235.712 244.094C235.818 244.332 235.872 244.589 235.872 244.85C235.872 245.111 235.818 245.368 235.712 245.606C235.606 245.844 235.451 246.057 235.258 246.232C235.064 246.406 234.836 246.538 234.589 246.619C234.341 246.699 234.079 246.727 233.82 246.7H232.13V243ZM233.77 246C234.075 246 234.367 245.879 234.583 245.663C234.799 245.448 234.92 245.155 234.92 244.85C234.92 244.545 234.799 244.252 234.583 244.037C234.367 243.821 234.075 243.7 233.77 243.7H233V246H233.77Z" fill="#263238"/>
<path d="M239.38 246V246.69H236.51V243H239.31V243.68H237.36V244.49H239.08V245.16H237.36V246H239.38Z" fill="#263238"/>
<path d="M254.1 250.57H191.41C189.45 250.57 187.86 252.159 187.86 254.12V267.36C187.86 269.321 189.45 270.91 191.41 270.91H254.1C256.061 270.91 257.65 269.321 257.65 267.36V254.12C257.65 252.159 256.061 250.57 254.1 250.57Z" fill="#F5F5F5"/>
<path d="M202.001 262C202.002 262.419 201.916 262.833 201.749 263.217C201.581 263.6 201.334 263.944 201.025 264.227C200.716 264.509 200.352 264.724 199.955 264.857C199.558 264.99 199.137 265.039 198.721 265C196.141 265 194.771 263.14 194.771 260.06C194.771 256.72 196.54 255.01 199.15 255.01C199.925 254.976 200.695 255.149 201.381 255.51L201.09 256.09C200.497 255.765 199.826 255.609 199.15 255.64C196.94 255.64 195.491 257.09 195.491 259.95C195.487 260.345 195.514 260.739 195.571 261.13C195.805 260.501 196.239 259.965 196.805 259.604C197.372 259.243 198.041 259.077 198.711 259.13C200.721 259.06 202.001 260.21 202.001 262ZM201.281 262C201.281 260.59 200.281 259.68 198.611 259.68C198.275 259.646 197.936 259.68 197.615 259.781C197.293 259.882 196.995 260.048 196.74 260.268C196.484 260.487 196.276 260.757 196.129 261.06C195.981 261.363 195.896 261.693 195.881 262.03C195.881 263.18 196.881 264.34 198.701 264.34C199.031 264.381 199.366 264.352 199.684 264.253C200.002 264.154 200.295 263.988 200.543 263.766C200.791 263.544 200.989 263.272 201.123 262.967C201.257 262.663 201.325 262.333 201.321 262H201.281Z" fill="#FF725E"/>
<path d="M215.11 262.16H213.05V264.89H212.34V262.16H206.73V261.64L212.08 255.04H212.88L207.63 261.52H212.36V259.12H213.05V261.52H215.11V262.16Z" fill="#FF725E"/>
<path d="M226.05 262.11C226.05 263.75 224.87 264.96 222.6 264.96C221.962 264.985 221.325 264.879 220.728 264.651C220.132 264.422 219.588 264.075 219.13 263.63L219.49 263.08C219.898 263.483 220.385 263.798 220.92 264.006C221.455 264.214 222.026 264.311 222.6 264.29C224.37 264.29 225.32 263.45 225.32 262.11C225.32 260.77 224.42 259.93 222.45 259.93H221.83V259.41L224.74 255.68H219.49V255H225.67V255.5L222.67 259.29C225 259.38 226.05 260.51 226.05 262.11Z" fill="#FF725E"/>
<path d="M238 255V255.5L233.77 264.85H232.98L237.17 255.64H231.64V257.53H230.94V255H238Z" fill="#FF725E"/>
<path d="M243 260C243 256.92 244.59 255 246.85 255C249.11 255 250.71 256.91 250.71 260C250.71 263.09 249.12 265 246.85 265C244.58 265 243 263 243 260ZM250 260C250 257.26 248.72 255.67 246.86 255.67C245 255.67 243.72 257.26 243.72 260C243.72 262.74 245 264.33 246.86 264.33C248.72 264.33 250 262.7 250 260Z" fill="#FF725E"/>
<path d="M457.399 517.52C470.489 511.96 485.649 501.03 492.399 487.62C477.873 493.649 465.624 504.114 457.399 517.52Z" fill="#263238"/>
<path d="M460.189 496.71C473.279 491.16 488.439 480.23 495.189 466.82C480.661 472.84 468.409 483.303 460.189 496.71Z" fill="#263238"/>
<path d="M464 476.48C477.1 470.92 492.25 459.99 499 446.59C484.472 452.612 472.222 463.074 464 476.48Z" fill="#263238"/>
<path d="M468.72 455.3C481.07 448 494.84 435 500 420.82C486.276 428.815 475.361 440.859 468.75 455.3" fill="#263238"/>
<path d="M473.8 439.09C482.8 427.32 491.19 409.8 491.08 394.62C481.076 407.424 475.066 422.891 473.8 439.09Z" fill="#263238"/>
<path d="M471.28 446.8C469.46 430.88 463.28 410.87 452.76 398.93C454.536 416.257 460.932 432.789 471.28 446.8Z" fill="#263238"/>
<path d="M467.05 464.21C463.85 447.8 455.75 427.5 443.81 415.99C447.078 433.861 455.107 450.519 467.05 464.21Z" fill="#263238"/>
<path d="M462.19 485.44C459 469 450.88 448.73 439 437.22C442.269 455.091 450.298 471.749 462.24 485.44" fill="#263238"/>
<path d="M458.29 511.51C455.08 495.1 446.98 474.8 435.05 463.29C438.319 481.161 446.347 497.819 458.29 511.51Z" fill="#263238"/>
<path d="M474.409 436C474.36 436.076 474.327 436.161 474.309 436.25C474.239 436.44 474.159 436.68 474.059 436.98C473.839 437.67 473.529 438.62 473.149 439.82C472.359 442.29 471.299 445.88 470.049 450.34C468.799 454.8 467.419 460.13 465.999 466.08C464.579 472.03 463.179 478.62 461.859 485.56C460.539 492.5 459.509 499.16 458.639 505.22C457.769 511.28 457.149 516.76 456.699 521.36C456.249 525.96 455.929 529.7 455.769 532.29C455.689 533.55 455.629 534.54 455.579 535.29C455.579 535.61 455.579 535.86 455.579 536.07C455.566 536.156 455.566 536.244 455.579 536.33C455.61 536.247 455.627 536.159 455.629 536.07C455.629 535.87 455.629 535.61 455.709 535.3C455.779 534.58 455.879 533.59 455.999 532.3C456.219 529.73 456.589 526 457.089 521.4C457.589 516.8 458.279 511.34 459.139 505.29C459.999 499.24 461.139 492.6 462.399 485.66C463.659 478.72 465.119 472.15 466.489 466.19C467.859 460.23 469.219 454.9 470.429 450.43C471.639 445.96 472.639 442.36 473.369 439.88L474.189 437.01C474.269 436.71 474.329 436.46 474.389 436.26C474.407 436.175 474.414 436.087 474.409 436Z" fill="#263238"/>
<path d="M451 526.18C456.55 514.56 460.59 498.18 457.87 485.45C451.664 498.068 449.276 512.224 451 526.18Z" fill="#455A64"/>
<path d="M441.79 511.13C447.34 499.5 451.38 483.13 448.65 470.4C442.442 483.018 440.057 497.175 441.79 511.13Z" fill="#455A64"/>
<path d="M433.51 495.82C439.06 484.19 443.1 467.82 440.37 455.09C434.161 467.708 431.777 481.865 433.51 495.82Z" fill="#455A64"/>
<path d="M425.35 479.31C429.48 467.01 431.55 450.23 427.35 437.96C422.69 451.258 421.996 465.624 425.35 479.31Z" fill="#455A64"/>
<path d="M419.999 465.79C419.589 452.7 415.739 436.3 407.609 426.63C407.791 440.619 412.101 454.242 419.999 465.79Z" fill="#455A64"/>
<path d="M422.49 472.28C412.86 463.2 398.22 454.17 385.06 452.99C395.353 462.982 408.379 469.695 422.49 472.28Z" fill="#455A64"/>
<path d="M429 486.06C418.21 477.5 402.17 469.48 388.31 469.45C399.928 478.895 414.09 484.676 429 486.06Z" fill="#455A64"/>
<path d="M437.1 502.67C426.31 494.12 410.28 486.09 396.42 486.06C408.036 495.503 422.194 501.284 437.1 502.67Z" fill="#455A64"/>
<path d="M448.41 521.79C437.62 513.23 421.58 505.21 407.72 505.17C419.335 514.622 433.499 520.407 448.41 521.79Z" fill="#455A64"/>
<path d="M418.779 463.42C418.779 463.42 418.779 463.49 418.839 463.63L419.059 464.25L419.959 466.6C420.749 468.6 421.959 471.6 423.489 475.18C426.569 482.37 431.139 492.18 436.809 502.72C439.649 507.97 442.499 512.91 445.159 517.34C447.819 521.77 450.349 525.71 452.519 528.97C454.689 532.23 456.519 534.84 457.759 536.62L459.239 538.62L459.629 539.14C459.719 539.26 459.769 539.32 459.779 539.31C459.747 539.241 459.71 539.174 459.669 539.11L459.319 538.56C458.969 538.05 458.509 537.35 457.919 536.47C456.679 534.66 454.919 532.02 452.809 528.74C450.699 525.46 448.209 521.5 445.549 517.07C442.889 512.64 440.079 507.69 437.239 502.44C431.569 492 426.999 482.2 423.809 475C422.229 471.42 420.979 468.51 420.139 466.49L419.139 464.17L418.869 463.57C418.844 463.517 418.814 463.467 418.779 463.42Z" fill="#263238"/>
<path d="M424.579 527.59H479.739V538.22H474.069L469.299 568.54H435.199L430.289 538.22H424.579V527.59Z" fill="#FF725E"/>
<path d="M424.579 538C424.579 537.86 436.839 537.74 451.959 537.74C467.079 537.74 479.339 537.86 479.339 538C479.339 538.14 467.089 538.25 451.959 538.25C436.829 538.25 424.579 538.14 424.579 538Z" fill="#263238"/>
<path d="M108.61 568.56H99.6598L96.3398 528.25H106.88L108.61 568.56Z" fill="#263238"/>
<path d="M186.21 568.56H195.16L198.48 528.25H187.94L186.21 568.56Z" fill="#263238"/>
<path d="M204.63 533.36L89.3896 536.06L85.8896 461.63C85.807 459.903 86.0759 458.178 86.6799 456.558C87.284 454.938 88.2106 453.458 89.4037 452.207C90.5967 450.956 92.0314 449.96 93.6207 449.28C95.21 448.6 96.9209 448.249 98.6496 448.25H196.84C198.592 448.25 200.326 448.61 201.933 449.309C203.54 450.007 204.987 451.029 206.183 452.31C207.378 453.591 208.298 455.104 208.884 456.756C209.47 458.407 209.71 460.162 209.59 461.91L204.63 533.36Z" fill="#FF725E"/>
<path d="M210.54 461.38H210.22H209.27L205.64 461.44H192.28C181 461.44 165.42 461.34 148.22 461.74C131.01 462.31 115.41 462.21 104.14 462.04C98.4996 461.95 93.9296 461.84 90.7796 461.74L87.1497 461.62H86.2096C86.1034 461.634 85.9959 461.634 85.8896 461.62H86.2096H87.1497H90.7796L104.14 461.75C115.42 461.83 131 461.87 148.21 461.29C165.42 460.9 181 461.08 192.28 461.16L205.64 461.27L209.27 461.32H210.22L210.54 461.38Z" fill="#263238"/>
<path d="M127.919 449.41C125.329 449.789 122.809 450.547 120.439 451.66C118.145 452.922 116.052 454.52 114.229 456.4C114.596 455.703 115.08 455.074 115.659 454.54C118.318 451.806 121.805 450.027 125.579 449.48C126.349 449.319 127.141 449.295 127.919 449.41Z" fill="#263238"/>
<path d="M175.319 314.08L189.399 339.81L209.999 328.27L219.999 331.58C219.999 331.58 194.759 359 190.649 360.43C186.539 361.86 178.759 362.09 174.319 356.52C170.319 351.45 158.479 324.85 158.479 324.85L175.319 314.08Z" fill="#FFBE9D"/>
<path d="M233.31 297.28C233.129 297.058 232.895 296.887 232.628 296.781C232.362 296.676 232.074 296.641 231.79 296.68L222 298C221.574 298.064 221.168 298.218 220.807 298.453C220.446 298.687 220.14 298.997 219.91 299.36L199.5 330.71L201.06 331.58L211.92 331.24L233.62 297.67L233.31 297.28Z" fill="#263238"/>
<path d="M226.359 301.35C226.438 301.474 226.553 301.57 226.689 301.625C226.825 301.68 226.975 301.691 227.118 301.656C227.26 301.622 227.388 301.543 227.484 301.431C227.579 301.32 227.637 301.181 227.649 301.035C227.661 300.888 227.627 300.742 227.551 300.616C227.476 300.49 227.363 300.391 227.228 300.333C227.093 300.275 226.943 300.261 226.8 300.293C226.657 300.325 226.527 300.401 226.429 300.51C226.314 300.615 226.243 300.761 226.23 300.916C226.217 301.072 226.263 301.227 226.359 301.35Z" fill="white"/>
<path d="M233.62 297.67C232.998 297.844 232.362 297.968 231.72 298.04L226.52 298.85L222.93 299.37C222.625 299.397 222.331 299.492 222.068 299.648C221.805 299.804 221.58 300.016 221.41 300.27L220.25 302.07C218.64 304.54 216.89 307.25 215.05 310.07C211.34 315.75 207.96 320.88 205.48 324.58L202.53 329C202.187 329.549 201.802 330.07 201.38 330.56C201.661 329.971 201.996 329.409 202.38 328.88L205.18 324.42C207.57 320.66 210.89 315.5 214.6 309.82C216.46 306.99 218.23 304.29 219.84 301.82C220.25 301.21 220.65 300.61 221.03 300.02C221.243 299.714 221.521 299.458 221.844 299.271C222.168 299.085 222.528 298.972 222.9 298.94L226.51 298.48L231.74 297.86C232.361 297.747 232.989 297.684 233.62 297.67Z" fill="#455A64"/>
<path d="M222.73 308.86C222.73 308.86 221.86 308.71 221.38 311.1C220.9 313.49 219.38 320.35 219.38 320.35L214.8 317.92L209.06 318.67C209.06 318.67 207.81 319.82 208.73 320.45C209.65 321.08 213.27 321.72 213.27 321.72L215.94 325.57L208.27 321.87C208.27 321.87 205.71 322.54 206.46 324.1C207.21 325.66 212.38 330.55 212.38 330.55L208.54 330.26L204 327.48C204 327.48 202.6 327.55 203.12 328.74C203.64 329.93 208.4 334.25 208.4 334.25L214.16 337.05C214.16 337.05 217.31 336.8 217.61 335.87C217.813 335.138 217.941 334.388 217.99 333.63C217.99 333.63 219.66 333.18 219.99 332.37C220.173 331.689 220.211 330.977 220.1 330.28C220.1 330.28 222.72 330.74 223.05 329.28C223.279 327.46 223.205 325.615 222.83 323.82C222.57 322.69 223.95 312.24 223.83 311.93C223.71 311.62 224.38 308.17 222.73 308.86Z" fill="#FFBE9D"/>
<path d="M217.76 335.89C217.304 336.163 216.79 336.321 216.26 336.35C213.704 336.721 211.104 336.102 208.99 334.62C208.2 334.05 207.81 333.62 207.86 333.53C207.91 333.44 209.79 334.96 212.59 335.61C215.39 336.26 217.73 335.71 217.76 335.89Z" fill="#EB996E"/>
<path d="M216.4 333.82C216.31 333.95 215.28 333.42 214.19 332.52C213.1 331.62 212.38 330.73 212.49 330.62C212.6 330.51 213.49 331.19 214.57 332.07C215.65 332.95 216.49 333.68 216.4 333.82Z" fill="#EB996E"/>
<path d="M219.429 328.85C219.339 328.98 218.319 328.46 217.299 327.51C216.279 326.56 215.679 325.6 215.799 325.51C215.919 325.42 216.719 326.18 217.699 327.09C218.679 328 219.519 328.71 219.429 328.85Z" fill="#EB996E"/>
<path d="M222.619 324.84C222.459 324.91 221.879 323.84 220.969 322.65C220.059 321.46 219.169 320.65 219.269 320.49C219.369 320.33 220.469 321.03 221.429 322.29C222.087 322.992 222.504 323.885 222.619 324.84Z" fill="#EB996E"/>
<path d="M226.509 510.3C226.586 509.988 226.586 509.662 226.509 509.35C226.347 508.486 226.007 507.665 225.509 506.94C225.347 506.689 225.156 506.457 224.939 506.25C224.798 506.116 224.623 506.023 224.433 505.981C224.242 505.939 224.044 505.949 223.859 506.01C223.751 506.048 223.652 506.11 223.57 506.191C223.489 506.272 223.427 506.371 223.389 506.48C223.319 506.688 223.319 506.912 223.389 507.12C223.526 507.468 223.693 507.802 223.889 508.12C224.259 508.75 224.57 509.37 225.05 510.12C225.189 510.321 225.382 510.481 225.605 510.581C225.829 510.682 226.076 510.719 226.32 510.69C226.767 510.61 227.188 510.425 227.549 510.15C228.212 509.664 228.816 509.104 229.35 508.48C229.607 508.184 229.847 507.873 230.07 507.55C230.313 507.234 230.493 506.874 230.6 506.49C230.659 506.264 230.638 506.024 230.539 505.812C230.441 505.6 230.271 505.43 230.059 505.33C229.862 505.272 229.652 505.265 229.451 505.31C229.249 505.356 229.063 505.452 228.91 505.59C228.452 505.989 228.049 506.447 227.71 506.95C227.206 507.657 226.806 508.431 226.52 509.25C226.388 509.539 226.32 509.853 226.32 510.17C226.793 509.118 227.366 508.114 228.029 507.17C228.368 506.72 228.758 506.311 229.189 505.95C229.419 505.79 229.699 505.68 229.869 505.77C229.968 505.828 230.044 505.919 230.084 506.026C230.124 506.133 230.126 506.251 230.089 506.36C229.986 506.673 229.827 506.964 229.619 507.22C229.409 507.52 229.179 507.81 228.939 508.1C228.422 508.681 227.846 509.208 227.219 509.67C226.927 509.896 226.584 510.047 226.219 510.11C226.07 510.128 225.919 510.104 225.783 510.041C225.647 509.977 225.531 509.876 225.449 509.75C225.059 509.18 224.679 508.47 224.309 507.88C224.139 507.57 223.929 507.27 223.829 507.02C223.729 506.77 223.829 506.57 223.979 506.49C224.409 506.32 224.84 506.81 225.13 507.22C225.78 508.15 226.248 509.196 226.509 510.3Z" fill="#263238"/>
<path d="M201.94 511.14L189.74 537.59L170.05 528.49L182.67 495.76L201.94 511.14Z" fill="#FFBE9D"/>
<path d="M192 535.82L184.87 549.42C184.87 549.42 203.12 568.29 201.41 572.51L158.51 551.94L170.29 524.67L192 535.82Z" fill="#455A64"/>
<path d="M172.54 541.2C172.068 541.14 171.591 541.25 171.193 541.511C170.796 541.771 170.504 542.164 170.37 542.62C170.279 543.09 170.373 543.576 170.632 543.978C170.891 544.381 171.295 544.668 171.76 544.78C172.26 544.856 172.771 544.743 173.194 544.464C173.617 544.186 173.922 543.76 174.05 543.27C174.092 542.769 173.939 542.272 173.621 541.882C173.304 541.492 172.848 541.24 172.35 541.18" fill="#E0E0E0"/>
<g opacity="0.6">
<path opacity="0.6" d="M158.55 551.94L160.33 548.52L200.8 569.52C200.8 569.52 202.31 571.26 201.45 572.52L158.55 551.94Z" fill="white"/>
</g>
<path d="M185.709 549.53C185.609 549.74 184.509 549.33 183.159 549.53C181.809 549.73 180.829 550.33 180.679 550.15C180.529 549.97 181.419 548.92 183.059 548.73C184.699 548.54 185.849 549.36 185.709 549.53Z" fill="#263238"/>
<path d="M189.319 553.55C189.319 553.78 188.189 553.7 187.059 554.24C185.929 554.78 185.269 555.63 185.059 555.52C184.849 555.41 185.289 554.16 186.719 553.52C188.149 552.88 189.409 553.35 189.319 553.55Z" fill="#263238"/>
<path d="M189.29 560.16C189.08 560.16 189.29 558.93 190.38 558.04C191.47 557.15 192.67 557.16 192.67 557.38C192.67 557.6 191.78 557.92 190.89 558.66C190 559.4 189.51 560.24 189.29 560.16Z" fill="#263238"/>
<path d="M187.76 544.3C187.58 544.45 186.76 543.7 185.54 543.21C184.32 542.72 183.21 542.65 183.19 542.42C183.17 542.19 184.41 541.87 185.84 542.42C187.27 542.97 187.94 544.18 187.76 544.3Z" fill="#263238"/>
<path d="M196.06 532.29L228.23 451.8C228.23 451.8 227.5 438.06 224.97 433.73C222.44 429.4 145.82 404.09 145.82 404.09C145.82 404.09 126.31 399.39 113.29 404.09C100.27 408.79 90.5199 425.09 92.2899 434.09C94.0599 443.09 101.72 449.76 101.72 449.76L158.07 451.44L188.78 462.64L168.1 521.91L196.06 532.29Z" fill="#263238"/>
<path d="M224.67 477.29L225.4 506.4L203.71 506.94L200.59 472L224.67 477.29Z" fill="#FFBE9D"/>
<path d="M226.69 503.8L226.29 519.15C226.29 519.15 250.99 528.02 251.29 532.57L203.72 533.05L202.25 503.38L226.69 503.8Z" fill="#455A64"/>
<path d="M211.56 517.24C211.103 517.384 210.716 517.691 210.473 518.102C210.229 518.514 210.146 519.001 210.24 519.47C210.367 519.931 210.666 520.326 211.075 520.573C211.484 520.82 211.972 520.902 212.44 520.8C212.922 520.645 213.329 520.317 213.584 519.88C213.839 519.442 213.923 518.926 213.82 518.43C213.64 517.961 213.284 517.581 212.829 517.37C212.373 517.159 211.853 517.134 211.38 517.3" fill="#E0E0E0"/>
<g opacity="0.6">
<path opacity="0.6" d="M203.75 533.05L203.84 529.19L249.42 530.19C249.42 530.19 251.54 531.09 251.32 532.59L203.75 533.05Z" fill="white"/>
</g>
<path d="M227.06 518.9C227.06 519.13 225.89 519.25 224.76 520.01C223.63 520.77 223.02 521.75 222.81 521.66C222.6 521.57 222.93 520.22 224.32 519.33C225.71 518.44 227.11 518.69 227.06 518.9Z" fill="#263238"/>
<path d="M232.069 520.91C232.129 521.14 231.119 521.54 230.339 522.53C229.559 523.52 229.339 524.53 229.119 524.53C228.899 524.53 228.719 523.21 229.719 521.99C230.719 520.77 232.059 520.69 232.069 520.91Z" fill="#263238"/>
<path d="M235 526.86C234.79 526.91 234.46 525.75 235 524.47C235.54 523.19 236.67 522.68 236.77 522.87C236.87 523.06 236.2 523.75 235.77 524.8C235.34 525.85 235.19 526.83 235 526.86Z" fill="#263238"/>
<path d="M226.579 513.3C226.489 513.51 225.419 513.2 224.109 513.3C222.799 513.4 221.779 513.83 221.649 513.63C221.519 513.43 222.499 512.63 224.049 512.5C225.599 512.37 226.699 513.11 226.579 513.3Z" fill="#263238"/>
<path d="M211.999 396.45C211.999 396.45 224.999 395.45 226.439 409.51C227.879 423.57 229.299 489.39 229.299 489.39L198.999 491.92L194.299 424.69L145.869 404.09C145.869 404.09 203.329 394.65 211.999 396.45Z" fill="#263238"/>
<path d="M158.459 377.43C158.459 377.43 166.339 399.54 164.839 402C163.339 404.46 143.069 414.6 143.069 414.6L92.3291 434.09C92.3291 434.09 87.1191 425.8 87.1191 413.09C87.1191 400.38 104.769 377.45 104.769 377.45L158.459 377.43Z" fill="#263238"/>
<path d="M143.42 403C143.495 403.052 143.576 403.095 143.66 403.13L144.38 403.46L147.19 404.71L157.74 409.31L194.15 424.98L193.98 424.75C194.44 431.39 194.98 438.56 195.45 445.98C196.69 463.33 197.83 479.32 198.73 491.98V492.21H198.96L221.08 490.27L227.17 489.7L228.76 489.54L229.3 489.46C229.117 489.445 228.933 489.445 228.75 489.46L227.16 489.56L221.06 490.01L198.92 491.75L199.17 491.96C198.3 479.31 197.17 463.31 196.01 445.96C195.49 438.54 195.01 431.37 194.51 424.73V424.57L194.36 424.5L157.87 409L147.26 404.56L144.42 403.39L143.68 403.1C143.596 403.06 143.509 403.027 143.42 403Z" fill="#455A64"/>
<path d="M103.069 405.17C103.558 405.094 104.037 404.967 104.499 404.79L108.319 403.55C112.489 402.141 116.762 401.061 121.099 400.32C125.439 399.612 129.869 399.669 134.189 400.49C137.489 401.18 139.389 402.12 139.429 402.01C139.019 401.732 138.576 401.507 138.109 401.34C136.87 400.819 135.589 400.404 134.279 400.1C129.914 399.149 125.408 399.033 120.999 399.76C116.627 400.499 112.332 401.64 108.169 403.17C106.569 403.74 105.289 404.23 104.399 404.58C103.941 404.74 103.496 404.937 103.069 405.17Z" fill="#455A64"/>
<path d="M110.239 393.52C111.718 393.43 113.201 393.43 114.679 393.52C116.049 393.61 117.679 393.82 119.479 394.03C121.279 394.24 123.269 394.49 125.329 394.88C128.854 395.441 132.232 396.695 135.269 398.57C136.481 399.414 137.634 400.339 138.719 401.34C138.52 400.989 138.271 400.669 137.979 400.39C137.229 399.582 136.395 398.858 135.489 398.23C132.453 396.224 129.023 394.89 125.429 394.32C123.349 393.93 121.349 393.7 119.539 393.51C117.729 393.32 116.089 393.16 114.699 393.12C113.604 393.072 112.506 393.118 111.419 393.26C111.016 393.29 110.618 393.377 110.239 393.52Z" fill="#455A64"/>
<path d="M132.649 215.88C126.819 214.88 121.649 217.13 116.759 220.42C111.755 223.938 107.941 228.897 105.825 234.637C103.71 240.377 103.394 246.626 104.919 252.55C105.764 255.561 107.209 258.369 109.169 260.806C111.128 263.243 113.56 265.258 116.319 266.73C123.909 270.58 133.619 269.24 140.419 264.1C147.219 258.96 151.089 250.47 151.419 241.96C151.734 236.058 150.188 230.206 146.999 225.23C145.383 222.772 143.277 220.673 140.813 219.064C138.349 217.455 135.58 216.371 132.679 215.88" fill="#263238"/>
<path d="M116.05 235.73C116.91 233.49 116.57 231 116.91 228.63C117.66 223.42 121.91 219.24 126.71 217.21C131.23 215.32 136.71 215.73 142.19 217.49C145.97 218.636 149.345 220.835 151.92 223.83C153.558 225.862 154.686 228.257 155.208 230.815C155.73 233.373 155.631 236.018 154.92 238.53L128.26 234.65C125.76 236.71 123.2 238.82 120.17 239.97C119.296 240.353 118.339 240.505 117.39 240.41C116.917 240.354 116.47 240.163 116.103 239.859C115.736 239.556 115.464 239.154 115.32 238.7C115.08 237.69 115.68 236.7 116.05 235.73Z" fill="#263238"/>
<path d="M142.76 224.85L119.48 229.79C118.401 229.862 117.387 230.333 116.637 231.111C115.886 231.889 115.452 232.919 115.42 234L115.7 284.39C115.724 287.83 116.876 291.168 118.98 293.89L121.2 296.75C126.27 303.28 136.52 302.62 140.39 295.32C140.627 294.905 140.808 294.462 140.93 294C141 293.55 141.12 293.25 141.14 292.87L141.59 287.95C141.81 283.47 141.85 278.95 141.85 278.95C141.85 278.95 151.38 277.75 153.85 265.47C155.06 259.37 155.14 249.28 154.94 241.03C154.73 233.64 150.18 224.36 142.76 224.85Z" fill="#FFBE9D"/>
<path d="M151.369 250.53C151.356 250.942 151.183 251.333 150.886 251.619C150.588 251.904 150.191 252.063 149.779 252.06C149.577 252.069 149.375 252.038 149.185 251.968C148.994 251.897 148.821 251.789 148.673 251.65C148.526 251.511 148.408 251.344 148.326 251.158C148.245 250.973 148.202 250.773 148.199 250.57C148.215 250.158 148.389 249.768 148.685 249.481C148.981 249.194 149.377 249.032 149.789 249.03C149.992 249.022 150.195 249.055 150.385 249.126C150.575 249.198 150.749 249.307 150.896 249.446C151.043 249.586 151.161 249.754 151.242 249.94C151.324 250.126 151.367 250.327 151.369 250.53Z" fill="#263238"/>
<path d="M152.53 246.22C152.32 246.42 151.16 245.49 149.45 245.43C147.74 245.37 146.45 246.17 146.29 245.95C146.13 245.73 146.41 245.49 146.97 245.12C147.728 244.633 148.62 244.395 149.52 244.44C150.404 244.47 151.255 244.782 151.95 245.33C152.46 245.76 152.63 246.14 152.53 246.22Z" fill="#263238"/>
<path d="M136.09 250.14C136.079 250.554 135.907 250.947 135.609 251.235C135.312 251.523 134.914 251.683 134.5 251.68C134.298 251.688 134.097 251.656 133.908 251.585C133.719 251.514 133.546 251.405 133.4 251.266C133.254 251.128 133.137 250.961 133.056 250.776C132.975 250.591 132.932 250.392 132.93 250.19C132.94 249.778 133.111 249.386 133.406 249.099C133.702 248.811 134.097 248.65 134.51 248.65C134.712 248.642 134.913 248.674 135.103 248.745C135.292 248.816 135.466 248.924 135.613 249.063C135.76 249.202 135.878 249.368 135.96 249.553C136.042 249.738 136.086 249.938 136.09 250.14Z" fill="#263238"/>
<path d="M136.339 245.81C136.129 246.01 134.969 245.07 133.259 245.01C131.549 244.95 130.259 245.75 130.099 245.54C129.939 245.33 130.219 245.08 130.789 244.7C131.547 244.22 132.433 243.983 133.329 244.02C134.217 244.056 135.071 244.371 135.769 244.92C136.269 245.34 136.439 245.72 136.339 245.81Z" fill="#263238"/>
<path d="M141.45 258.77C142.362 258.535 143.298 258.404 144.24 258.38C144.68 258.38 145.09 258.28 145.18 257.99C145.231 257.542 145.148 257.09 144.94 256.69C144.57 255.62 144.18 254.5 143.78 253.32C142.17 248.53 141.03 244.6 141.22 244.54C141.41 244.48 142.88 248.31 144.48 253.1C144.86 254.28 145.23 255.4 145.58 256.48C145.837 257.016 145.894 257.626 145.74 258.2C145.669 258.35 145.566 258.483 145.438 258.588C145.311 258.694 145.161 258.769 145 258.81C144.757 258.86 144.508 258.884 144.26 258.88C143.322 258.968 142.378 258.931 141.45 258.77Z" fill="#263238"/>
<path d="M141.849 279C136.03 278.867 130.362 277.119 125.479 273.95C125.479 273.95 129.299 282.66 141.709 281.95L141.849 279Z" fill="#EB996E"/>
<path d="M140.569 262.85C140.261 262.429 139.85 262.095 139.375 261.878C138.901 261.661 138.379 261.569 137.859 261.61C137.475 261.63 137.099 261.73 136.755 261.902C136.411 262.074 136.106 262.315 135.859 262.61C135.625 262.882 135.479 263.219 135.439 263.576C135.4 263.933 135.47 264.293 135.639 264.61C135.902 264.925 136.252 265.155 136.645 265.271C137.039 265.387 137.458 265.383 137.849 265.26C138.667 265.008 139.426 264.593 140.079 264.04C140.279 263.915 140.452 263.752 140.589 263.56C140.652 263.465 140.685 263.354 140.685 263.24C140.685 263.126 140.652 263.015 140.589 262.92" fill="#EB996E"/>
<path d="M136.389 259.76C136.669 259.76 136.599 261.6 138.129 262.98C139.659 264.36 141.639 264.23 141.649 264.49C141.649 264.6 141.189 264.83 140.359 264.82C139.273 264.792 138.232 264.381 137.419 263.66C136.647 262.979 136.167 262.026 136.079 261C135.999 260.19 136.259 259.74 136.389 259.76Z" fill="#263238"/>
<path d="M136.239 240.75C136.059 241.21 134.359 240.92 132.349 241.08C130.339 241.24 128.709 241.73 128.459 241.3C128.349 241.1 128.639 240.67 129.309 240.25C130.198 239.724 131.199 239.419 132.229 239.36C133.253 239.273 134.282 239.434 135.229 239.83C135.999 240.15 136.319 240.53 136.239 240.75Z" fill="#263238"/>
<path d="M152.319 238.75C152.009 239.13 150.849 238.68 149.439 238.6C148.029 238.52 146.819 238.76 146.559 238.35C146.439 238.15 146.649 237.77 147.179 237.42C147.897 236.996 148.729 236.808 149.559 236.88C150.387 236.925 151.18 237.225 151.829 237.74C152.309 238.16 152.459 238.57 152.319 238.75Z" fill="#263238"/>
<path d="M111.779 232.13C114.199 225.04 124.779 215.38 132.199 216.05L143.999 223.44C143.57 225.469 142.6 227.345 141.191 228.867C139.783 230.39 137.989 231.504 135.999 232.09C133.869 232.69 131.329 232.82 129.999 234.61C128.669 236.4 129.379 239.15 128.149 241.03C126.439 243.65 121.929 243.43 120.629 246.27C120.069 247.51 120.319 249.01 119.729 250.27C118.949 251.91 114.729 253.92 112.999 253.34C111.269 252.76 111.329 249.81 110.799 248.25C110.117 246.495 110.068 244.557 110.659 242.77C111.519 239.26 110.629 235.51 111.779 232.13Z" fill="#263238"/>
<path d="M118.12 254.87C118.12 253.95 117.12 251.74 116.27 251.56C113.86 251.09 109.48 251.12 109.2 257.28C108.82 265.7 117.35 264.34 117.38 264.1C117.41 263.86 118 258.05 118.12 254.87Z" fill="#FFBE9D"/>
<path d="M115 260.8C115 260.8 114.85 260.89 114.59 260.99C114.24 261.131 113.85 261.131 113.5 260.99C112.62 260.62 111.94 259.17 111.96 257.66C111.976 256.935 112.15 256.221 112.47 255.57C112.562 255.311 112.716 255.079 112.918 254.892C113.12 254.706 113.364 254.571 113.63 254.5C113.799 254.461 113.977 254.484 114.131 254.565C114.285 254.646 114.405 254.779 114.47 254.94C114.57 255.18 114.47 255.35 114.56 255.36C114.65 255.37 114.74 255.23 114.69 254.88C114.658 254.67 114.552 254.478 114.39 254.34C114.279 254.245 114.15 254.173 114.011 254.129C113.872 254.084 113.725 254.067 113.58 254.08C113.231 254.135 112.903 254.278 112.625 254.494C112.346 254.711 112.128 254.995 111.99 255.32C111.601 256.032 111.392 256.829 111.38 257.64C111.38 259.34 112.15 260.97 113.38 261.38C113.603 261.455 113.839 261.479 114.073 261.452C114.306 261.424 114.531 261.345 114.73 261.22C114.92 261 115 260.81 115 260.8Z" fill="#EB996E"/>
<path d="M110 230C110 227.36 106.74 225.64 104.17 225C101.548 224.55 98.8514 225.065 96.58 226.45C95.23 227.19 93.87 228.25 93.58 229.76C93.29 231.27 94.73 233.07 96.17 232.53C95.4662 232.76 94.8224 233.144 94.285 233.653C93.7476 234.163 93.33 234.785 93.0624 235.475C92.7949 236.166 92.684 236.907 92.7378 237.646C92.7917 238.384 93.0088 239.102 93.3737 239.746C93.7385 240.39 94.2419 240.945 94.8475 241.371C95.4531 241.798 96.1458 242.084 96.8755 242.21C97.6052 242.335 98.3537 242.297 99.067 242.099C99.7803 241.9 100.441 241.545 101 241.06C100.269 243.502 98.7234 245.62 96.62 247.06C98.7959 247.372 101.016 247.106 103.056 246.287C105.096 245.469 106.884 244.127 108.241 242.397C109.597 240.667 110.474 238.611 110.783 236.435C111.092 234.258 110.822 232.039 110 230Z" fill="#263238"/>
<path d="M104.139 243.34C103.889 242.521 103.781 241.665 103.819 240.81C103.786 236.65 105.152 232.599 107.699 229.31C108.18 228.603 108.783 227.987 109.479 227.49C107.72 229.736 106.317 232.238 105.319 234.91C103.769 239.41 104.329 243.35 104.139 243.34Z" fill="#FF725E"/>
<path d="M141.54 220.9C142.31 224.33 147.54 228.72 149.81 231.39C154.17 236.48 155.03 238.17 154.99 249.56C157.05 245.63 158.63 241.77 158.47 237.34C158.373 232.853 156.637 228.556 153.59 225.26C152.065 223.652 150.187 222.421 148.104 221.664C146.022 220.907 143.791 220.646 141.59 220.9" fill="#263238"/>
<path d="M177.25 314.58C177.25 314.58 168.17 299.45 165.65 296.39C163.626 294.025 161.083 292.16 158.22 290.94C157.089 290.452 155.904 290.099 154.69 289.89L141.63 287C141.63 287 141.63 295.91 132.28 296.46C122.93 297.01 115.09 284 115.09 284C115.09 284 99.9996 286.34 96.3996 288.2C92.7996 290.06 87.1196 292.41 83.9996 308L81.8096 323.28L107.81 325.68L110.3 364.32L123.19 373.32C123.19 373.32 158.94 382.61 161.19 383.22C163.44 383.83 164.19 325.7 164.19 325.7C164.19 325.7 173.45 319.79 177.25 314.58Z" fill="#263238"/>
<path d="M160.13 308.08C160.341 308.433 160.512 308.809 160.64 309.2C160.93 309.93 161.31 311 161.73 312.34C163.916 319.361 164.817 326.719 164.39 334.06C164.31 335.46 164.2 336.59 164.08 337.37C164.053 337.776 163.983 338.179 163.87 338.57C163.822 338.165 163.822 337.755 163.87 337.35C163.92 336.57 163.98 335.44 164.01 334.04C164.107 330.399 163.94 326.756 163.51 323.14C163.059 319.529 162.344 315.956 161.37 312.45C161 311.1 160.67 310.01 160.43 309.27C160.288 308.885 160.188 308.486 160.13 308.08Z" fill="#455A64"/>
<path d="M159 371.37L110 360.71L107.74 325.71L85.9697 323.71C85.9697 323.71 86.7797 347.63 87.6097 354.71C88.8197 364.94 94.8597 378.9 98.3997 381.71C101.94 384.52 161.15 383.24 161.15 383.24L159 371.37Z" fill="#FFBE9D"/>
<path d="M186.81 377.71C186.647 378.048 186.387 378.33 186.062 378.519C185.738 378.708 185.364 378.795 184.99 378.77C184.83 378.759 184.672 378.729 184.52 378.68C183.43 378.33 183.52 376.12 183.52 376.12L178.34 375.28C178.34 375.28 171.59 379.63 169.19 382.51C166.79 385.39 160.67 383.06 160.67 383.06L158.55 372L168.1 363.37C168.1 363.37 167.52 363.88 168.18 362.27C168.84 360.66 171.83 361.27 171.83 361.27C172.3 360.47 174.26 360.19 174.26 360.19L182.64 361.19C183.491 361.289 184.31 361.577 185.035 362.034C185.76 362.491 186.373 363.105 186.83 363.83L190.38 369.44C190.38 369.44 192.25 373.44 191.95 374.44C191.816 374.842 191.536 375.178 191.165 375.382C190.795 375.586 190.36 375.642 189.95 375.54C189.95 375.54 189.54 378.2 188.84 378.29C188.125 378.253 187.423 378.083 186.77 377.79L186.81 377.71Z" fill="#FFBE9D"/>
<path d="M169 369.77C169 369.86 170.12 369.77 171.91 369.83C174.234 369.942 176.533 370.373 178.74 371.11C179.955 371.518 181.136 372.023 182.27 372.62C183.27 373.19 184.33 373.62 184.66 374.39C184.734 374.55 184.765 374.727 184.75 374.902C184.734 375.078 184.672 375.246 184.57 375.39C184.418 375.626 184.199 375.811 183.94 375.92C183.702 376.003 183.451 376.04 183.2 376.03C183.2 376.03 183.46 376.26 184 376.12C184.326 376.031 184.612 375.834 184.81 375.56C184.954 375.378 185.048 375.161 185.083 374.931C185.118 374.702 185.093 374.467 185.01 374.25C184.797 373.769 184.45 373.359 184.01 373.07C183.55 372.78 183.07 372.47 182.54 372.18C181.392 371.55 180.19 371.021 178.95 370.6C176.695 369.838 174.33 369.449 171.95 369.45C170.956 369.401 169.96 369.509 169 369.77Z" fill="#EB996E"/>
<path d="M168.399 375.11C168.399 375.27 171.819 375.11 176.009 375.37C180.199 375.63 183.559 376.13 183.589 375.97C182.89 375.695 182.157 375.517 181.409 375.44C179.632 375.139 177.839 374.938 176.039 374.84C174.237 374.74 172.431 374.74 170.629 374.84C169.877 374.827 169.127 374.918 168.399 375.11Z" fill="#EB996E"/>
<path d="M186.76 377.5C186.833 377.209 186.87 376.91 186.87 376.61C186.921 375.791 186.921 374.969 186.87 374.15C186.841 373.578 186.764 373.009 186.64 372.45C186.489 371.795 186.21 371.177 185.82 370.63C184.994 369.364 183.927 368.273 182.68 367.42C181.448 366.567 180.101 365.893 178.68 365.42C177.501 365.087 176.285 364.902 175.06 364.87C174.06 364.87 173.2 364.87 172.62 364.87C172.317 364.85 172.013 364.88 171.72 364.96C172.82 365.117 173.929 365.211 175.04 365.24C176.227 365.319 177.401 365.534 178.54 365.88C179.904 366.378 181.198 367.05 182.39 367.88C183.569 368.707 184.586 369.744 185.39 370.94C186.047 371.912 186.425 373.047 186.48 374.22C186.7 376.21 186.65 377.5 186.76 377.5Z" fill="#EB996E"/>
<path d="M174.67 362.3C174.67 362.38 175.92 362.42 177.92 362.65C179.92 362.88 182.92 363.08 184.69 365.74C186.393 367.725 187.813 369.936 188.91 372.31C189.273 373.33 189.541 374.381 189.71 375.45C189.769 375.156 189.769 374.854 189.71 374.56C189.659 373.748 189.494 372.946 189.22 372.18C188.206 369.712 186.798 367.426 185.05 365.41C184.583 364.793 184.039 364.238 183.43 363.76C182.83 363.326 182.15 363.013 181.43 362.84C180.269 362.529 179.08 362.338 177.88 362.27C176.813 362.153 175.735 362.163 174.67 362.3Z" fill="#EB996E"/>
<path d="M171 380.73C171.177 380.618 171.344 380.491 171.5 380.35L172.9 379.22C174.661 377.851 176.501 376.585 178.41 375.43H178.29L183.47 376.31L183.29 376.09C183.273 376.516 183.307 376.942 183.39 377.36C183.458 377.826 183.663 378.261 183.98 378.61C184.17 378.782 184.406 378.893 184.66 378.93C184.901 378.975 185.148 378.975 185.39 378.93C185.893 378.856 186.352 378.6 186.68 378.21C186.767 378.119 186.844 378.018 186.91 377.91L186.96 377.82L186.66 377.93L186.82 377.99C187.04 378.08 187.26 378.16 187.49 378.23C187.72 378.3 187.95 378.36 188.2 378.41C188.329 378.421 188.46 378.421 188.59 378.41C188.755 378.42 188.92 378.389 189.07 378.32C189.297 378.141 189.47 377.902 189.57 377.63C189.675 377.401 189.762 377.163 189.83 376.92C189.97 376.437 190.081 375.946 190.16 375.45L189.86 375.66C190.211 375.733 190.576 375.711 190.915 375.595C191.255 375.478 191.557 375.273 191.79 375C192.021 374.718 192.148 374.365 192.15 374C192.122 373.662 192.061 373.327 191.97 373C191.577 371.726 191.099 370.48 190.54 369.27L188.65 366.27L187.45 364.38C187.085 363.718 186.646 363.101 186.14 362.54C185.604 362.001 184.964 361.575 184.26 361.29C183.573 361.035 182.851 360.887 182.12 360.85L174.23 359.96H174.17C173.695 360.036 173.229 360.16 172.78 360.33C172.3 360.474 171.879 360.768 171.58 361.17L171.87 361.08C171.443 360.883 170.975 360.794 170.506 360.82C170.037 360.846 169.582 360.987 169.18 361.23C168.48 361.739 168.004 362.498 167.85 363.35L167.91 363.24L161.33 369.16L159.56 370.79C159.342 370.968 159.144 371.169 158.97 371.39C159.204 371.236 159.425 371.062 159.63 370.87L161.48 369.32L168.17 363.54H168.22V363.47C168.363 362.728 168.781 362.067 169.39 361.62C169.734 361.425 170.119 361.315 170.514 361.3C170.909 361.284 171.302 361.363 171.66 361.53L171.84 361.6L171.95 361.44C172.211 361.13 172.559 360.907 172.95 360.8C173.368 360.648 173.8 360.537 174.24 360.47H174.17L182.06 361.4C182.744 361.44 183.418 361.582 184.06 361.82C184.698 362.076 185.277 362.46 185.76 362.95C186.237 363.485 186.653 364.072 187 364.7L188.2 366.6C188.85 367.6 189.49 368.6 190.09 369.6C190.646 370.778 191.117 371.995 191.5 373.24C191.588 373.53 191.645 373.828 191.67 374.13C191.675 374.389 191.586 374.641 191.42 374.84C191.25 375.039 191.028 375.188 190.78 375.271C190.532 375.354 190.265 375.367 190.01 375.31H189.74V375.56C189.663 376.036 189.56 376.506 189.43 376.97C189.345 377.382 189.159 377.767 188.89 378.09C188.82 378.101 188.749 378.101 188.68 378.09H188.36C188.15 378.09 187.93 377.99 187.71 377.93L187.07 377.71L186.92 377.65L186.61 377.76V377.82C186.561 377.906 186.504 377.986 186.44 378.06C186.186 378.364 185.831 378.566 185.44 378.63C185.252 378.67 185.058 378.67 184.87 378.63C184.693 378.613 184.526 378.544 184.39 378.43C183.951 377.796 183.752 377.027 183.83 376.26V376.07H183.65L178.45 375.26H178.39H178.34C176.437 376.451 174.617 377.767 172.89 379.2C172.29 379.71 171.84 380.12 171.54 380.4C171.348 380.49 171.167 380.601 171 380.73Z" fill="#EB996E"/>
<path d="M250.32 345.54L185.85 346.07C183.75 346.07 181.76 347.07 181.44 349.14L174.44 396.14H141.18C140.691 396.175 140.233 396.394 139.899 396.753C139.565 397.112 139.379 397.585 139.379 398.075C139.379 398.565 139.565 399.038 139.899 399.397C140.233 399.756 140.691 399.975 141.18 400.01H247.26L254.51 350.41C254.6 349.807 254.56 349.192 254.391 348.606C254.222 348.02 253.929 347.477 253.531 347.015C253.133 346.552 252.64 346.181 252.086 345.927C251.532 345.672 250.93 345.54 250.32 345.54Z" fill="#E0E0E0"/>
<path d="M250.319 345.54C250.656 345.526 250.993 345.56 251.319 345.64C252.177 345.843 252.951 346.307 253.535 346.968C254.119 347.629 254.483 348.454 254.579 349.33C254.604 350.22 254.523 351.109 254.339 351.98L253.409 358.53C251.989 368.38 249.949 382.58 247.409 400.04V400.21H247.239L144.329 400.27H141.559C141.056 400.318 140.549 400.221 140.099 399.99C139.755 399.801 139.468 399.523 139.268 399.186C139.068 398.848 138.963 398.463 138.963 398.07C138.963 397.678 139.068 397.292 139.268 396.954C139.468 396.617 139.755 396.339 140.099 396.15C140.551 395.924 141.057 395.831 141.559 395.88H174.399L174.149 396.1C176.679 379.27 179.049 363.57 181.149 349.48C181.219 348.539 181.649 347.662 182.349 347.03C183.049 346.44 183.902 346.062 184.809 345.94C185.673 345.856 186.542 345.826 187.409 345.85H189.939L199.649 345.79L216.899 345.68L241.459 345.55H250.299C250.299 345.55 250.109 345.55 249.729 345.55H248.029L241.459 345.64L216.899 345.91L199.649 346.09L189.939 346.18H187.409C186.565 346.164 185.721 346.194 184.879 346.27C184.049 346.38 183.268 346.727 182.629 347.27C182.318 347.55 182.065 347.888 181.885 348.265C181.705 348.643 181.601 349.052 181.579 349.47C179.479 363.56 177.139 379.26 174.579 396.09V396.31H141.579C141.169 396.258 140.751 396.328 140.379 396.51C140.041 396.704 139.78 397.009 139.64 397.373C139.499 397.738 139.489 398.139 139.609 398.51C139.752 398.886 140.021 399.2 140.369 399.4C140.745 399.582 141.164 399.655 141.579 399.61H144.349L247.259 399.67L247.059 399.84C249.649 382.39 251.749 368.2 253.209 358.35C253.579 355.9 253.909 353.71 254.209 351.82C254.395 350.963 254.486 350.087 254.479 349.21C254.396 348.354 254.05 347.544 253.49 346.891C252.93 346.238 252.183 345.774 251.349 345.56C251.007 345.536 250.663 345.529 250.319 345.54Z" fill="#263238"/>
<path d="M215.35 376.22C217.581 376.22 219.39 374.411 219.39 372.18C219.39 369.949 217.581 368.14 215.35 368.14C213.118 368.14 211.31 369.949 211.31 372.18C211.31 374.411 213.118 376.22 215.35 376.22Z" fill="white"/>
<path d="M177 399.57C177.09 399.57 179.14 387.62 181.58 372.85C184.02 358.08 185.93 346.08 185.84 346.07C185.75 346.06 183.69 358.02 181.25 372.79C178.81 387.56 176.92 399.56 177 399.57Z" fill="#263238"/>
</svg>
